<svg width="24" height="24" viewBox="0 0 24 24" fill="none" xmlns="http://www.w3.org/2000/svg">
<circle cx="12" cy="12" r="12" fill="black" fill-opacity="0.12"/>
<path d="M16 14.72C15.4933 14.72 15.04 14.92 14.6933 15.2333L9.94 12.4666C9.97333 12.3133 10 12.16 10 12C10 11.84 9.97333 11.6866 9.94 11.5333L14.64 8.79331C15 9.12665 15.4733 9.33331 16 9.33331C17.1067 9.33331 18 8.43998 18 7.33331C18 6.22665 17.1067 5.33331 16 5.33331C14.8933 5.33331 14 6.22665 14 7.33331C14 7.49331 14.0267 7.64665 14.06 7.79998L9.36 10.54C9 10.2066 8.52667 9.99998 8 9.99998C6.89333 9.99998 6 10.8933 6 12C6 13.1066 6.89333 14 8 14C8.52667 14 9 13.7933 9.36 13.46L14.1067 16.2333C14.0733 16.3733 14.0533 16.52 14.0533 16.6666C14.0533 17.74 14.9267 18.6133 16 18.6133C17.0733 18.6133 17.9467 17.74 17.9467 16.6666C17.9467 15.5933 17.0733 14.72 16 14.72Z" fill="black" fill-opacity="0.38"/>
</svg>
