<svg xmlns="http://www.w3.org/2000/svg" viewBox="0 0 949.39 396.19"><defs><style>.cls-1{fill:#73e0fe;}.cls-2{fill:#48abfe;}.cls-3{fill:#4e5c6e;}.cls-4{fill:#229afe;}.cls-5{fill:#5ccdfe;}.cls-6{fill:#b5effe;}.cls-7{fill:#dbfdfe;}.cls-8{fill:#5dcdfd;}.cls-9{fill:#7cb9f6;}.cls-10{fill:#a8cefb;}.cls-11{fill:#edfcfe;}.cls-12{fill:#fefefe;}.cls-13{fill:#7bb9f6;}.cls-14{fill:#f3f8fd;}.cls-15{fill:#65b7fb;}.cls-16{fill:none;}.cls-17{fill:#4aaafa;}</style></defs><g id="Layer_2" data-name="Layer 2"><g id="Layer_1-2" data-name="Layer 1"><path class="cls-1" d="M346.9,151c-9-11.48-14-24.72-16.9-38.84-2-9.65-.77-19.46-1-29.19,2.9-1.33,3.05,1.57,4.17,2.82,2.72,3,5.16,6.4,9.93,6,9.24-.67,12.4-3.8,13.82-13.7.39-1.65,1.06-3.63,2.56-4,3.59-.86.81-2.62.86-4,1.79-6.17,5.6-11.25,9-16.57,6.62-8.27,14.47-15.11,24.08-19.64a71.38,71.38,0,0,1,15.34-5.56c6.51-1.41,10.51-6,11-12.44.42-5.23-3.39-10.19-9.53-12.54-1.21-.47-3.2,0-3.14-2.31,13.2-1.71,26.28-1.55,39.29,1.79,15.3,3.93,29.05,10.64,40.49,21.66,2.09,2,4.76,3.54,6.06,6.33,2.58,3.37,3.15,7.43,3.91,11.43.52,2.74,1.76,5.23,2.7,7.84-.29,3.2.43,6.41-.1,9.61C495,63.66,489,64.6,483.73,66.8c-15.69,6.54-28,17-38,30.46-5.07,6.07-8.42,13.07-11.09,20.45-3.77,6.08-4.19,13.15-5.87,19.84-.63,6.88-2.17,13.72-.88,20.68a5.36,5.36,0,0,1-.39,3.39c-1.34,1.79-3.44,1.93-5.35,2.33-8.34,1.76-16.8,2.1-25.31,2.45-16,.67-30.24-4.88-44.35-11.29C350.34,154.12,349,152,346.9,151Z"/><path class="cls-2" d="M426.89,161.89c-1.61-7.25-.77-14.49.05-21.73.13-1.14-.12-2.36,1-3.19,1.46,1.06,1.76,2.76,2.25,4.3,2.15,6.75,12.53,11.72,19.43,5.22a13.27,13.27,0,0,1,.87-1.11,9.68,9.68,0,0,1,5.39-3.24c4.61,1.41,9.34.44,14,.66,3,0,2.48-2.51,3-4.25a3.77,3.77,0,0,1,.71-1.82c.84-.95,1.71-2.29,3.18-1.68,1.21.51,1.18,1.94,1,3.06-.8,4.23.47,5.24,4.76,4.06,2.92-.79,6.48.88,8.85-2.29,1.5-.86,2.9-2.16,4.84-1.13a4.1,4.1,0,0,1,1.2,4.23c-4.87,5.73-5.22,7.23-1.24,14.14,3.32,5.74,6.81,11.43,11.48,16.27,4,4.17,3.77,5.73-1.34,8.66a111.28,111.28,0,0,1-15.42,7.07c-4.89,1.88-6.61,4.8-5.21,8.56,1.24,3.3,4.5,4.32,9.38,2.68a93.14,93.14,0,0,0,21.48-10.48c3.5-2.3,6.39-2.83,9.9,0,3,2.34,6.25,5.13,9.32,6.3,5.26,2,10.6,4.78,16.49,4.94a4.67,4.67,0,0,0,5.18-4.36c.45-3.09-.36-5.61-3.55-6.89a138.67,138.67,0,0,1-16.81-7.61c-5.33-3-5.67-4.54-1.59-9.06,9.67-10.71,15.91-23.29,20.06-37,1.87-6.19,2.05-6.39,8.64-6.51,4.26-.08,8.86.69,11.53-4,.73-6.14-1.58-8.29-9-8.32q-16,.16-31.94,0c-6.18,0-7.12-1.12-7.3-7.37-.08-3,.16-6-.21-9-.42-3.36-2.13-5.69-5.69-5.84s-4.88,2.32-5.64,5.28-.5,6-.55,8.94c-.12,7.09-.93,7.92-8.18,8-7.81.07-15.63,0-23.45,0a37.36,37.36,0,0,0-4.49.14c-3,.36-5.56,1.48-6.34,4.7-.75,3.06.93,5.06,3.41,6.54.57.34,1.15.67,1.7,1,2.44,4-1.54,4.87-3.29,4.93-2.46.09-2.87,1.06-3.57,2.85-1.12,2.88-2.24,6.29-6.4,2.9-1.34-1.09-1.9.7-2.79,1.19-2,1.14-3.44,1-3.85-1.61a20.33,20.33,0,0,1,.84-4.16c2.91-4.24,3.76-4.46,6.52-1.83-.81-1.56-1.93-2.42-3.83-1.48-1.34.67-2.65,1.57-4.11.27-1-1.74-.22-3.38.25-5a98.34,98.34,0,0,1,8.44-15.48c10.28-14,24.23-22.35,40.82-26.8,8.58-2.3,12.27-10,8.93-17.79a12.52,12.52,0,0,0-6.19-6.21c-1.15-.59-2.62-.71-3.16-2.19.83-2.27,1.92-3.79,4.32-1.47,15.17-1.87,29.67.74,44,5.9C569,68.88,580.71,77.3,591,87.88c7.61,17.56,8.94,35.72,5.17,54.37-6,30-22.72,52.34-48.34,68.45a128.24,128.24,0,0,1-33.64,12c-15.81,3.28-31,1.2-46.22-3-5.61-1.54-10.82-4.19-16.46-5.68-2.67-.7-3.86-4.06-6.67-5-2.15-3.25-5-6.08-6-10-5.83-4-7-10.81-8.89-16.79a138.6,138.6,0,0,1-3.75-13.68C425.77,166.28,425.21,164,426.89,161.89Z"/><path class="cls-3" d="M664.92,332.93c0,18.62,0,36.45,0,54.27,0,6.19-2.54,8.86-8,8.7-4.72-.15-7-2.23-7-7-.06-26,0-52,0-78,0-3.07,1.06-5.51,4.08-6.57,3.63-1.27,7-.49,9.35,2.54,5,6.27,9.74,12.69,14.59,19q15.14,19.86,30.3,39.71a8.8,8.8,0,0,0,1.68,1.14v-39.2c0-5.17-.06-10.33,0-15.5s3.12-8.27,7.72-8.2c5.29.08,7.25,2.27,7.26,8.24,0,25,0,50,0,75,0,3.66-.24,7.1-4.32,8.43s-7.51-.23-10-3.52c-7.12-9.34-14.05-18.83-21.23-28.12C681.5,353.73,673.43,343.7,664.92,332.93Z"/><path class="cls-3" d="M195,366.74V315.52c0-1.33-.06-2.67,0-4,.28-4.7,3.38-7.7,7.82-7.61,5.09.11,7.15,2.3,7.16,7.84,0,25.32,0,50.64,0,76,0,3.59-.62,6.69-4.41,7.87s-7.19-.12-9.66-3.26c-4.54-5.77-9-11.63-13.47-17.45L150,332.6c0,17.41,0,33.8-.05,50.2,0,2.91.38,5.78-.73,8.78-1.7,4.6-5.15,4.74-8.79,4.21s-5.47-3.13-5.45-7c.05-11.83,0-23.65,0-35.48,0-13.66,0-27.33,0-41,0-3.52.44-6.71,4.19-8a8.15,8.15,0,0,1,9.7,3c6.78,8.79,13.41,17.69,20.14,26.52q12.15,16,24.38,31.9C193.61,366.06,194.1,366.2,195,366.74Z"/><path class="cls-3" d="M318,368.29c0,5.5,0,11,0,16.5,0,2.71-.72,4.91-3.42,5.84-19.17,6.56-38.32,9.2-56.41-2.81-9.41-6.24-14.59-15.5-16.27-26.86-1.58-10.74-1.34-21.1,2.71-31.38,5.39-13.69,15.7-21.52,29.49-24.47,13.26-2.84,26.37-1.46,38.63,5.09,4.35,2.33,6.6,5.16,4.15,10.82-1.37,3.18-6.08,4-10.48,1.61a40.1,40.1,0,0,0-28-3.78c-9,1.88-15.11,7.14-18.05,15.52a46.22,46.22,0,0,0,.09,31.34c3.87,10.84,12.77,15.14,23.53,16.14A51.72,51.72,0,0,0,302,380c2.29-.61,3-1.57,3-3.7-.05-5.17-.15-10.34,0-15.5.09-2.62-1.1-3-3.29-2.93-3.49.13-7,.09-10.49,0-4.66-.09-7.7-2.55-7.19-6.21.53-3.82,2.55-6.06,7-5.86,6.81.31,13.66.11,20.49.08,4.32,0,6.79,1.44,6.48,6.4C317.71,357.61,318,363,318,368.29Z"/><path class="cls-3" d="M832.9,368.54c0,5.5,0,11,0,16.5,0,2.49-.66,4.57-3.2,5.46-19,6.64-37.89,9.29-56-2.32-9.88-6.34-15.15-15.76-16.92-27.46-1.6-10.61-1.24-20.82,2.63-30.92,5.24-13.71,15.56-21.66,29.35-24.65,13.42-2.9,26.71-1.6,39.07,5.2,4.88,2.68,6.13,5.73,4,10.43-1.48,3.28-6,4.31-10.31,2a39.86,39.86,0,0,0-28.49-3.85c-8.46,1.88-14.44,6.72-17.46,14.84a45.61,45.61,0,0,0-.11,32.18c3.93,10.88,12.9,15,23.64,15.94,5.93.53,11.75-.43,17.56-1.82,2.58-.62,3.26-1.66,3.23-4-.07-5-.18-10,0-15,.13-2.86-1.15-3.28-3.54-3.19-3.66.15-7.34.11-11,0-3.84-.09-6.51-2.13-6.37-6s2.17-6.26,6.7-6.09c7,.27,14,.07,21,.07,4.09,0,6.49,1.41,6.23,6.15C832.66,357.53,832.9,363,832.9,368.54Z"/><path class="cls-4" d="M444.87,209.05c5.32,2.27,10.53,4.88,16,6.76,12.76,4.39,25.6,7.69,39.47,6.87,15.21-.9,29.51-4.13,42.9-11.39a8.16,8.16,0,0,1,4.7-1.38c4.81,2.27,7.86,6.63,11.46,10.21,4.08,4.06,8.82,7.63,11.66,12.85-4.91,3.56-10.17,6.9-16,8.12-9.56,2-14.73,8.82-20.2,15.71-2.51,3.16-4.18,7.06-8.27,8.91-5.09,2.3-9.6,1.83-13.55-2.27-3.15-3.26-6.43-6.53-8.88-10.29a25.83,25.83,0,0,0-14.73-11.37C471.06,235.93,456.58,224.24,444.87,209.05Z"/><path class="cls-4" d="M571,233a324.5,324.5,0,0,1-23.12-23.06c3.73-5,9.62-7.34,14.24-11.32A99.88,99.88,0,0,0,584,171.91a103.12,103.12,0,0,0,11-29c.16-.05.39-.21.46-.15,7.93,5.87,15.52,12.07,20.22,21.05a93.89,93.89,0,0,1-18,45.28C590.42,218.79,581.9,227.26,571,233Z"/><path class="cls-3" d="M0,349.4q0-17.73,0-35.46c0-6.85,1.79-9,7.46-9S16,308,16,314.44c0,20.64.11,41.28-.09,61.92,0,3.79,1,4.72,4.68,4.63,10.49-.26,21-.11,31.47-.08,5.61,0,8,2.14,7.94,7s-2.38,6.93-8,6.94q-22,0-43.95,0c-5.68,0-8-2.32-8-8Q0,368.13,0,349.4Z"/><path class="cls-3" d="M513.94,349.89V314.43c0-7.35,1.69-9.51,7.47-9.52s8.52,3,8.53,10c0,20.47.11,40.95-.1,61.42,0,3.81,1,4.71,4.7,4.62,10.48-.26,21-.11,31.46-.08,5.61,0,8,2.15,7.93,7s-2.38,6.92-8,6.93q-22,0-44,0c-5.69,0-8-2.32-8-8C513.92,374.53,513.94,362.21,513.94,349.89Z"/><path class="cls-5" d="M426.89,161.89a90.16,90.16,0,0,0,12,37.14c-1.37-.28-2.15.54-2.86,1.52-1,1.48-1.9,3.2-3.24,4.36-7.32,6.31-11.66,7.44-18.69-.4-4.37-4.88-8.35-10.13-12.44-15.26A8.84,8.84,0,0,0,396.8,186C377,181,361.94,168.81,348.66,154A18,18,0,0,1,346.9,151c3.8,0,6.37,2.86,9.39,4.4a93.81,93.81,0,0,0,28.76,9c12.58,1.91,25.38.66,37.92-2C424.26,162.15,425.58,162.07,426.89,161.89Z"/><path class="cls-6" d="M407.13,1.07c5,1.08,9.35,3.35,12.09,7.7,4.9,7.78.52,18-9,20.45-15,3.86-28,10.75-38,22.86A15.73,15.73,0,0,1,370,54c-1.45-1.2-1.24-3-1.63-4.58-2.12-8.53-8.23-12.34-16.78-10.46-1.57.35-3.16,1.25-4.75,0,14.63-20,34-32.61,58.42-37.24A11.9,11.9,0,0,0,407.13,1.07Z"/><path class="cls-3" d="M599.93,349.72q0-18.72,0-37.46c0-6.25,2-8.4,7.64-8.35,5.37,0,8.34,3.07,8.34,8.71q0,37.22,0,74.42c0,5.9-3,8.94-8.7,8.86-5.43-.08-7.27-2.28-7.28-8.72Q599.92,368.46,599.93,349.72Z"/><path class="cls-3" d="M85,349.84c0-12.65,0-25.31,0-38,0-5.83,2.09-8,7.52-8,5.23,0,8.43,2.92,8.45,8.1q.07,38,0,75.92c0,5.11-3.32,8-8.57,8S85,393.66,85,387.8Q85,368.82,85,349.84Z"/><path class="cls-7" d="M346.84,39A63.28,63.28,0,0,1,354,37c9.35-1.41,17,7.48,16,17L361,70c-3.85,7.84-16.71,8.13-22.4.32-2.39-3.28-4.86-6.86-2.62-11.35A52.09,52.09,0,0,1,346.84,39Z"/><path class="cls-4" d="M615.63,163.84A210.31,210.31,0,0,0,595,142.94c0-5.57,1.46-11,1.75-16.56.67-13-2.26-25.12-6.07-37.23-.1-.35.26-.85.4-1.27,6.91,8.24,13,16.91,17.43,26.86C615.5,130.54,616.87,147,615.63,163.84Z"/><path class="cls-6" d="M336,58.93c0,6.69,2.61,12.09,8.83,14.65C350.69,76,356.49,75.22,361,70c3.16,4.21-2.5,5.13-3,8a61.05,61.05,0,0,1-15,15c-5.77.15-8.9-3.72-11.75-7.87-.63-.91-.64-2.22-2.18-2.12a111.29,111.29,0,0,1,4.41-18.9C334.06,62.29,334.18,60.19,336,58.93Z"/><path class="cls-8" d="M511,57.9c-1.74-1.19-2.74.47-4,1.06-2.52,1.66-5.12,2.66-8,1-.64-3.33-1.57-6.67,0-10,.94-2.2,2-4.2,4.92-4C508,48.91,508.38,54.06,511,57.9Z"/><path class="cls-8" d="M503.89,46l-4.92,4c-2.51-2.14-2.8-5.12-3.34-8.12-.66-3.7-1.76-7.32-2.66-11C497.87,35,501.8,39.82,503.89,46Z"/><path class="cls-9" d="M498.94,59.93c2.71,0,5.25-1.5,8-1,4.88,1.81,8.88,4.23,10.9,9.68,2.84,7.63-2.83,16.63-9.9,18.2a68.67,68.67,0,0,0-28.5,13.41C474.81,104,470.92,108.51,467,113c-1.46-1.21-1.27-2.93-1.38-4.55-.62-8.44-5.45-12.58-14-12.16-2.27.11-4.4,1.53-6.75.66,4.59-8.21,11.61-14.11,18.77-19.91C474.13,68.59,486.29,63.78,498.94,59.93Z"/><path class="cls-10" d="M444.92,97c8-3.86,15.21-2.52,20.09,3.57,3.07,3.83,1.51,8.29,2,12.48l-8.11,14.91c-4.35,5.65-9.78,6.91-16,3.71-1.79-6,2.15-13.27,8.21-13.76,5.28-.42,3.81,4,3.69,7.07,0,.66,0-.19.16.44.05.17.6,0,.87-.25,1.2-1.28.86-2.6.12-3.92-2.87-4.37-3.88-4.61-8.29-2.16-3.89,2.16-5.83,6.14-8.74,9.21a2.25,2.25,0,0,1-1.49-.15c-3.51-3-5.47-6.48-3.47-11.19C436.15,109.47,439.42,102.6,444.92,97Z"/><path class="cls-11" d="M436.94,95.51c-.09,7-6.17,12.51-13.84,12.43A13.2,13.2,0,0,1,410,94.08,13.45,13.45,0,0,1,423.41,81C431.37,80.94,437.06,87.06,436.94,95.51Z"/><path class="cls-11" d="M380.63,107.94c-8,0-14.1-5.82-14.13-13.44A13.46,13.46,0,0,1,380.07,81c7.27,0,13.86,6.57,13.74,13.63C393.69,101.32,387.14,108,380.63,107.94Z"/><path class="cls-9" d="M433.92,116.91c-.5,4.37,1.68,7.75,4.08,11,1.51,1.84.51,3.86.3,5.77-.58,5.31.91,9.53,5.94,12,2,1.76,4.69-.38,6.74,1.12-3.61,3.91-7.9,4.77-12.93,3.23-6.56-2-9.38-6.73-10.12-13.14C429,130,429.54,122.89,433.92,116.91Z"/><path class="cls-6" d="M343,93a123.5,123.5,0,0,1,15-15C357.72,88.12,353,92.89,343,93Z"/><path class="cls-12" d="M478.87,131c-5.82-1-8.16-3.37-7.92-8.11.22-4.4,3.4-6.9,9.08-6.94,9.64,0,19.28-.16,28.92.06,3.9.09,5.6-.84,5.3-5.17a40.6,40.6,0,0,1,.54-12.37c1-4.16,4-5.4,7.33-5.15,3.67.26,6.59,2.44,6.78,6.65a84.27,84.27,0,0,1,0,11.46c-.37,3.93,1.22,4.63,4.79,4.59,11.45-.12,22.91.12,34.36.22,3.92,2.34,7.78,4.73,8.9,9.66-1.58,4.8-5.46,5.08-9.63,5.06-8.73,0-8.58.06-11.37,8.38-4.39,13.09-10.5,25.25-20.13,35.39a36.85,36.85,0,0,0-2.67,3.57,86.79,86.79,0,0,0,20.2,9.75c4.88,1.69,6.83,5.26,5.52,10-1.06,3.83-4.57,4.86-9.61,4.08-4.66-.72-8.24-4.93-13.56-3.59-1.39.35-1.56-2.78-3.46-3.77-3-1.55-6.23-2.82-8.6-5.43-2-2.2-3.72-.08-5.11.83a97.58,97.58,0,0,1-25.27,12.12c-4.27,1.29-7.27-.27-9-3.92-1.93-4.18.16-8.3,4.6-9.89a104.09,104.09,0,0,0,18.41-8.35c2.4-1.43,2.84-2.47.68-4.67A76.28,76.28,0,0,1,493,153.36c-2.22-4.87-1.11-7.68,3.82-10.55,4-2.28,6.85-.21,9.54,2.5a94,94,0,0,0,12.1,18.27c2.1,2.52,3.46,2.81,5.83.16,7.13-8,11.82-17.25,15.76-27,1.37-3.39.39-4.53-3.12-4.49-10.65.09-21.31,0-32,.07-.77,0-1.53,0-2.3,0-2.05,0-4.11,0-6.16,0a42.22,42.22,0,0,1-6.84,0c-1,0-2.06,0-3.09,0-2.13-.07-4.28.21-6.38-.37A3.49,3.49,0,0,1,478.87,131Z"/><path class="cls-2" d="M489.86,131.05l6.16,0c.93.76,1.14,3.54,3.24,1,.84-1,2.48-.26,3.56-1l2.2,0c4.56,1.23,4.46,4.23,3,7.76-1,1.78-.68,3.66-.41,5.53-.18,1-.26,2-1.72,1.66a11.68,11.68,0,0,0-9-3.14c-.34-1.3-.67-2.6-1-3.9-2.38-1.4-2.83,1.11-4.08,2-2.38,1-3.84,6-7.52,1.71-.21-.24-1.71.68-2.63,1-1.3.45-2.46,1.85-4,.43a4.07,4.07,0,0,1-1.26-4.9,4.77,4.77,0,0,0,.35-3.61c-1.86.38-2.59,1.59-2.75,3.34-1.25,1.76-.65,4.92-3.92,5.17-2.61-1.36-5.52,1.85-8.07-.54-2.42,2.92-4-.82-6.06-.75a2.17,2.17,0,0,1-1.55-2.21c.63-2.73.28-5.94,3.6-7.34,2.44-.7,4.59-2.76,7.47-1.3a2.21,2.21,0,0,1,1.49,2.24,1.62,1.62,0,0,1-1.39,1.74c-2.1.48-.86-1.3-1.25-1.72-2.51-2.67-3,.65-4.33,1.64-.34,1.45-1.54,2.69-1,4.34,1.25,3.22,2.33.83,3.38-.14s.94-2.92,2.54-2.67c2.08.31.41,2.67,1.56,3.73,3.75-.3,3.57-3.6,4.41-6,.91-2.65.8-2.69,3.25-1.23.72.43.72.43,4.85-2.8l1.21.07c3.44,2.07.93,5.07,1.24,8.2,1.66-1.49,1.77-3.3,2.27-4.86s1.06-3.21,3.28-2.94c3.54,1.12,1.32,4.14,2.2,6.49C489.59,135.5,488,133,489.86,131.05Z"/><path class="cls-13" d="M457.91,133.2c-1.82,2.23-1.71,5.21-3,7.65-1.83,3.43-4.81,4.65-8.53,4.28a5.91,5.91,0,0,1-5.65-5.17c-.05-2.9-.64-5.84.66-8.63a1.14,1.14,0,0,1,1.5-.45c6,2.56,11.19.82,16-3Z"/><path class="cls-13" d="M441.92,140.06c2.65,5.29,6.38,5.52,13,.79.31.63.63,1.26.94,1.9L451,146.2c-2.35.25-4.53,2.17-7.06.76-6.69-3.68-8.41-7.52-6.81-15.16.27-1.28.56-2.56.84-3.84l.92,0c1.37.63,2.46,1.48,2.52,3.15C441.59,134.06,440.54,137.12,441.92,140.06Z"/><path class="cls-14" d="M576.91,125.9l-8.9-9.66C575.24,115.91,578.18,119.11,576.91,125.9Z"/><path class="cls-2" d="M470,144c2.41-.89,2-3.92,3.92-5.17C473.37,141.17,474.46,144.71,470,144Z"/><path class="cls-9" d="M444,147c2.44.53,4.6-1.5,7.06-.77,0,.24,0,.46,0,.69C448.64,147.09,446.33,149.28,444,147Z"/><path class="cls-15" d="M473.86,191.08c0,1.24-.55,1.29-1.28,1.29s-1.69,0-1.52-1.17c.13-.92.88-.66,1.49-.69S473.9,190.42,473.86,191.08Z"/><path class="cls-2" d="M491.76,140.91c.79-1.83,1.21-4.42,4.08-2C494.1,138.8,493.28,140.57,491.76,140.91Z"/><path class="cls-2" d="M458.88,140.14c-1.59-1.9-.15-3.09,1-4.34A7,7,0,0,1,458.88,140.14Z"/><path class="cls-3" d="M433.86,338.31c-1.48-7.56-4.23-14.61-9.49-20.52-6.69-7.54-14.92-11.63-24.93-13.2-16.8-2.62-32.73,2.35-42.65,16.82-8.35,12.18-9,25.57-6.85,39.54,4.72,30.17,35.29,41.94,60.27,31.18,18.35-7.91,24-23.64,24.77-42C435.66,346.05,434.62,342.14,433.86,338.31ZM418,349.68c-.27,10.77-1.84,21.38-11.53,27.86-14.64,9.79-34.63,4-39.34-15.89-2.23-9.44-2.08-19,1.66-28.48,5-12.55,17-17.09,29.4-14.66C411.05,321,418.63,335.07,418,349.68Z"/><path class="cls-16" d="M398.19,318.51c-12.43-2.43-24.42,2.11-29.4,14.66-3.74,9.43-3.89,19-1.66,28.48,4.71,19.91,24.7,25.68,39.34,15.89,9.69-6.48,11.26-17.09,11.53-27.86C418.63,335.07,411.05,321,398.19,318.51Z"/><path class="cls-10" d="M441,130.94c-.62-1.05-2.16-1.47-2-3,.88-4.64,4.4-7.32,7.85-9.76,3.84-2.7,7.55-1.42,10.24,2.89.47,1.68,1,3.37-.32,4.93-1,1.06-1.88,2.75-3.56,1.69-1.36-.87.21-2,.42-3,.43-2.1,1.29-5.31-.76-5.77-2.9-.65-6,1.53-7.52,4.08-1.38,2.27-2.8,4.91-2.37,7.89l-1,.13C441.58,131.44,441.25,131.4,441,130.94Z"/><path class="cls-10" d="M456.69,126c.11-1.64.22-3.29.32-4.93C458.37,122.78,458.58,124.45,456.69,126Z"/><path class="cls-2" d="M506.92,139c1-3,1.72-6-1.9-8,11.45,0,22.9,0,34.35-.11,3.31,0,3.81.69,2.74,4-3.93,12.1-13.15,27.46-20.93,33.84-5.88-7.07-12.27-13.75-15.31-22.74.95-.34,1.06-1.11,1-2A6.18,6.18,0,0,1,506.92,139Z"/><path class="cls-2" d="M486.93,131.71c-3,1.13-2.19,4.1-2.79,6.27s-1.92,3.62-3.61,3.23c-2.5-.57-.57-2.82-.36-4.06.36-2.1,1.24-4.05-.09-6.09l6.85.12Z"/><path class="cls-2" d="M486.93,131.71v-.53l2.93-.14c.4,1.87-.6,4,.89,5.65,1.27,1.41-.17,2-.84,2.74-.39.42-1.4,1-1.56.81a2.9,2.9,0,0,1-1-3.06C487.91,135.29,488.62,133.42,486.93,131.71Z"/><path class="cls-2" d="M502.82,131c-2.82.78-4.39,3.61-7.46,4.86.12-2,1.21-3.34.66-4.88Z"/><path class="cls-17" d="M500.93,134.73c2.11-2.8,3.79-2,3.53,1-.21,2.24-.32,5.93-4.56,5.3C498.78,138.71,499.75,136.7,500.93,134.73Z"/><path class="cls-2" d="M500.93,134.73c-.34,2.11-.69,4.21-1,6.32Q497.26,137.38,500.93,134.73Z"/><path class="cls-2" d="M506.92,139c0,1.68,0,3.35,0,5A3.42,3.42,0,0,1,506.92,139Z"/><path class="cls-9" d="M441,130.94a3,3,0,0,1,1,.07c0,3,0,6,0,9.05C439.1,137.29,441.08,134,441,130.94Z"/><path class="cls-3" d="M948,337.69c-1.51-7.55-4.29-14.59-9.56-20.48-6.72-7.51-15-11.58-25-13.11-16.81-2.56-32.73,2.47-42.6,17-8.3,12.21-8.93,25.6-6.7,39.57,4.82,30.15,35.44,41.81,60.38,31,18.32-8,23.89-23.73,24.62-42.08C949.84,345.43,948.78,341.53,948,337.69ZM932.2,349.12c-.24,10.77-1.76,21.39-11.43,27.91-14.61,9.84-34.62,4.14-39.4-15.76-2.26-9.42-2.15-19,1.56-28.49,4.93-12.56,16.91-17.14,29.34-14.75C925.14,320.49,932.78,334.51,932.2,349.12Z"/><path class="cls-16" d="M912.27,318c-12.43-2.39-24.41,2.19-29.34,14.75-3.71,9.45-3.82,19.07-1.56,28.49,4.78,19.9,24.79,25.6,39.4,15.76,9.67-6.52,11.19-17.14,11.43-27.91C932.78,334.51,925.14,320.49,912.27,318Z"/></g></g></svg>