<svg xmlns="http://www.w3.org/2000/svg" viewBox="0 0 949.4 472.87"><defs><style>.cls-1{fill:#73e0fe;}.cls-2{fill:#48abfe;}.cls-3{fill:#fff;}.cls-4{fill:#229afe;}.cls-5{fill:#5ccdfe;}.cls-6{fill:#b5effe;}.cls-7{fill:#dbfdfe;}.cls-8{fill:#5dcdfd;}.cls-9{fill:#7cb9f6;}.cls-10{fill:#a8cefb;}.cls-11{fill:#edfcfe;}.cls-12{fill:#fefefe;}.cls-13{fill:#7bb9f6;}.cls-14{fill:#f3f8fd;}.cls-15{fill:#65b7fb;}.cls-16{fill:none;}.cls-17{fill:#4aaafa;}</style></defs><g id="Layer_2" data-name="Layer 2"><g id="Layer_2-2" data-name="Layer 2"><g id="Layer_1-2" data-name="Layer 1-2"><path class="cls-1" d="M346.9,151c-9-11.48-14-24.72-16.9-38.84-2-9.65-.77-19.46-1-29.19,2.9-1.33,3.05,1.57,4.17,2.82,2.72,3,5.16,6.4,9.93,6,9.24-.67,12.4-3.8,13.82-13.7.39-1.65,1.06-3.63,2.56-4,3.59-.86.81-2.62.86-4,1.79-6.17,5.6-11.25,9-16.57,6.62-8.27,14.47-15.11,24.08-19.64a71.43,71.43,0,0,1,15.34-5.56c6.51-1.41,10.51-6,11-12.44.42-5.23-3.39-10.19-9.53-12.54-1.21-.47-3.2,0-3.14-2.31,13.2-1.71,26.28-1.55,39.29,1.79,15.3,3.93,29.05,10.64,40.49,21.66,2.09,2,4.76,3.54,6.06,6.33,2.58,3.37,3.15,7.43,3.91,11.43.52,2.74,1.76,5.23,2.7,7.84-.29,3.2.43,6.41-.1,9.61-4.44,4-10.44,4.91-15.71,7.11-15.69,6.54-28,17-38,30.46-5.07,6.07-8.42,13.07-11.09,20.45-3.77,6.08-4.19,13.15-5.87,19.84-.63,6.88-2.17,13.72-.88,20.68a5.35,5.35,0,0,1-.39,3.39c-1.34,1.79-3.44,1.93-5.35,2.33-8.34,1.76-16.8,2.1-25.31,2.45-16,.67-30.24-4.88-44.35-11.29C350.34,154.16,349,152,346.9,151Z"/><path class="cls-2" d="M426.89,161.93c-1.61-7.25-.77-14.49.05-21.73.13-1.14-.12-2.36,1-3.19,1.46,1.06,1.76,2.76,2.25,4.3,2.15,6.75,12.53,11.72,19.43,5.22a13.27,13.27,0,0,1,.87-1.11,9.68,9.68,0,0,1,5.39-3.24c4.61,1.41,9.34.44,14,.66,3,0,2.48-2.51,3-4.25a3.75,3.75,0,0,1,.71-1.82c.84-1,1.71-2.29,3.18-1.68,1.21.51,1.18,1.94,1,3.06-.8,4.23.47,5.24,4.76,4.06,2.92-.79,6.48.88,8.85-2.29,1.5-.86,2.9-2.16,4.84-1.13a4.1,4.1,0,0,1,1.2,4.23c-4.87,5.73-5.22,7.23-1.24,14.14,3.32,5.74,6.81,11.43,11.48,16.27,4,4.17,3.77,5.73-1.34,8.66a110.65,110.65,0,0,1-15.42,7.07c-4.89,1.88-6.61,4.8-5.21,8.56,1.24,3.3,4.5,4.32,9.38,2.68a93.34,93.34,0,0,0,21.48-10.48c3.5-2.3,6.39-2.83,9.9,0,3,2.34,6.25,5.13,9.32,6.3,5.26,2,10.6,4.78,16.49,4.94a4.67,4.67,0,0,0,5.16-4.12,1.94,1.94,0,0,0,0-.24c.45-3.09-.36-5.61-3.55-6.89a138,138,0,0,1-16.81-7.61c-5.33-3-5.67-4.54-1.59-9.06,9.67-10.71,15.91-23.29,20.06-37,1.87-6.19,2.05-6.39,8.64-6.51,4.26-.08,8.86.69,11.53-4,.73-6.14-1.58-8.29-9-8.32q-16,.16-31.94,0c-6.18,0-7.12-1.12-7.3-7.37-.08-3,.16-6-.21-9-.42-3.36-2.13-5.69-5.69-5.84s-4.88,2.32-5.64,5.28-.5,6-.55,8.94c-.12,7.09-.93,7.92-8.18,8-7.81.07-15.63,0-23.45,0a37.36,37.36,0,0,0-4.49.14c-3,.36-5.56,1.48-6.34,4.7-.75,3.06.93,5.06,3.41,6.54l1.7,1c2.44,4-1.54,4.87-3.29,4.93-2.46.09-2.87,1.06-3.57,2.85-1.12,2.88-2.24,6.29-6.4,2.9-1.34-1.09-1.9.7-2.79,1.19-2,1.14-3.44,1-3.85-1.61a20.33,20.33,0,0,1,.84-4.16c2.91-4.24,3.76-4.46,6.52-1.83-.81-1.56-1.93-2.42-3.83-1.48-1.34.67-2.65,1.57-4.11.27-1-1.74-.22-3.38.25-5a98.34,98.34,0,0,1,8.44-15.48c10.28-14,24.23-22.35,40.82-26.8,8.58-2.3,12.27-10,8.93-17.79a12.56,12.56,0,0,0-6.19-6.21c-1.15-.59-2.62-.71-3.16-2.19.83-2.27,1.92-3.79,4.32-1.47,15.17-1.87,29.67.74,44,5.9,14,5.1,25.74,13.52,36,24.1,7.61,17.56,8.94,35.72,5.17,54.37-6,30-22.72,52.34-48.34,68.45a128.17,128.17,0,0,1-33.64,12c-15.81,3.28-31,1.2-46.22-3-5.61-1.54-10.82-4.19-16.46-5.68-2.67-.7-3.86-4.06-6.67-5-2.15-3.25-5-6.08-6-10-5.83-4-7-10.81-8.89-16.79a140.4,140.4,0,0,1-3.75-13.68C425.77,166.32,425.21,164,426.89,161.93Z"/><path class="cls-3" d="M664.92,333v54.27c0,6.19-2.54,8.86-8,8.7-4.72-.15-7-2.23-7-7-.06-26,0-52,0-78,0-3.07,1.06-5.51,4.08-6.57,3.63-1.27,7-.49,9.35,2.54,5,6.27,9.74,12.69,14.59,19q15.13,19.86,30.3,39.71a8.72,8.72,0,0,0,1.68,1.14v-39.2c0-5.17-.06-10.33,0-15.5s3.12-8.27,7.72-8.2c5.29.08,7.25,2.27,7.26,8.24v75c0,3.66-.24,7.1-4.32,8.43s-7.51-.23-10-3.52c-7.12-9.34-14.05-18.83-21.23-28.12C681.5,353.77,673.43,343.74,664.92,333Z"/><path class="cls-3" d="M195,366.78V315.56c0-1.33-.06-2.67,0-4,.28-4.7,3.38-7.7,7.82-7.61,5.09.11,7.15,2.3,7.16,7.84v76c0,3.59-.62,6.69-4.41,7.87s-7.19-.12-9.66-3.26c-4.54-5.77-9-11.63-13.47-17.45L150,332.64c0,17.41,0,33.8-.05,50.2,0,2.91.38,5.78-.73,8.78-1.7,4.6-5.15,4.74-8.79,4.21s-5.47-3.13-5.45-7c.05-11.83,0-23.65,0-35.48v-41c0-3.52.44-6.71,4.19-8a8.15,8.15,0,0,1,9.7,3c6.78,8.79,13.41,17.69,20.14,26.52q12.15,16,24.38,31.9C193.61,366.1,194.1,366.24,195,366.78Z"/><path class="cls-3" d="M318,368.33v16.5c0,2.71-.72,4.91-3.42,5.84-19.17,6.56-38.32,9.2-56.41-2.81-9.41-6.24-14.59-15.5-16.27-26.86-1.58-10.74-1.34-21.1,2.71-31.38,5.39-13.69,15.7-21.52,29.49-24.47,13.26-2.84,26.37-1.46,38.63,5.09,4.35,2.33,6.6,5.16,4.15,10.82-1.37,3.18-6.08,4-10.48,1.61a40.13,40.13,0,0,0-28-3.78c-9,1.88-15.11,7.14-18,15.52a46.22,46.22,0,0,0,.09,31.34c3.87,10.84,12.77,15.14,23.53,16.14A51.78,51.78,0,0,0,302,380c2.29-.61,3-1.57,3-3.7-.05-5.17-.15-10.34,0-15.5.09-2.62-1.1-3-3.29-2.93-3.49.13-7,.09-10.49,0-4.66-.09-7.7-2.55-7.19-6.21.53-3.82,2.55-6.06,7-5.86,6.81.31,13.66.11,20.49.08,4.32,0,6.79,1.44,6.48,6.4C317.71,357.65,318,363,318,368.33Z"/><path class="cls-3" d="M832.9,368.58v16.5c0,2.49-.66,4.57-3.2,5.46-19,6.64-37.89,9.29-56-2.32-9.88-6.34-15.15-15.76-16.92-27.46-1.6-10.61-1.24-20.82,2.63-30.92,5.24-13.71,15.56-21.66,29.35-24.65,13.42-2.9,26.71-1.6,39.07,5.2,4.88,2.68,6.13,5.73,4,10.43-1.48,3.28-6,4.31-10.31,2A39.91,39.91,0,0,0,793,319c-8.46,1.88-14.44,6.72-17.46,14.84a45.61,45.61,0,0,0-.11,32.18c3.93,10.88,12.9,15,23.64,15.94,5.93.53,11.75-.43,17.56-1.82,2.58-.62,3.26-1.66,3.23-4-.07-5-.18-10,0-15,.13-2.86-1.15-3.28-3.54-3.19-3.66.15-7.34.11-11,0-3.84-.09-6.51-2.13-6.37-6s2.17-6.26,6.7-6.09c7,.27,14,.07,21,.07,4.09,0,6.49,1.41,6.23,6.15C832.66,357.57,832.9,363,832.9,368.58Z"/><path class="cls-4" d="M444.87,209.09c5.32,2.27,10.53,4.88,16,6.76,12.76,4.39,25.6,7.69,39.47,6.87,15.21-.9,29.51-4.13,42.9-11.39a8.19,8.19,0,0,1,4.7-1.38c4.81,2.27,7.86,6.63,11.46,10.21,4.08,4.06,8.82,7.63,11.66,12.85-4.91,3.56-10.17,6.9-16,8.12-9.56,2-14.73,8.82-20.2,15.71-2.51,3.16-4.18,7.06-8.27,8.91-5.09,2.3-9.6,1.83-13.55-2.27-3.15-3.26-6.43-6.53-8.88-10.29a25.85,25.85,0,0,0-14.73-11.37C471.06,236,456.58,224.28,444.87,209.09Z"/><path class="cls-4" d="M571,233A322.42,322.42,0,0,1,547.88,210c3.73-5,9.62-7.34,14.24-11.32A99.91,99.91,0,0,0,584,172a102.93,102.93,0,0,0,11-29c.16,0,.39-.21.46-.15,7.93,5.87,15.52,12.07,20.22,21a93.92,93.92,0,0,1-18,45.28C590.42,218.83,581.9,227.3,571,233Z"/><path class="cls-3" d="M0,349.44V314c0-6.85,1.79-9,7.46-9S16,308,16,314.48c0,20.64.11,41.28-.09,61.92,0,3.79,1,4.72,4.68,4.63,10.49-.26,21-.11,31.47-.08,5.61,0,8,2.14,7.94,7s-2.38,6.93-8,6.94H8.05c-5.68,0-8-2.32-8-8Q0,368.17,0,349.44Z"/><path class="cls-3" d="M513.94,349.93V314.47c0-7.35,1.69-9.51,7.47-9.52s8.52,3,8.53,10c0,20.47.11,40.95-.1,61.42,0,3.81,1,4.71,4.7,4.62,10.48-.26,21-.11,31.46-.08,5.61,0,8,2.15,7.93,7s-2.38,6.92-8,6.93h-44c-5.69,0-8-2.32-8-8Q513.92,368.44,513.94,349.93Z"/><path class="cls-5" d="M426.89,161.93a90.18,90.18,0,0,0,12,37.14c-1.37-.28-2.15.54-2.86,1.52a21.29,21.29,0,0,1-3.24,4.36c-7.32,6.31-11.66,7.44-18.69-.4-4.37-4.88-8.35-10.13-12.44-15.26A8.84,8.84,0,0,0,396.8,186c-19.8-5-34.86-17.19-48.14-32a18,18,0,0,1-1.76-3c3.8,0,6.37,2.86,9.39,4.4a93.8,93.8,0,0,0,28.76,9c12.58,1.91,25.38.66,37.92-2C424.26,162.19,425.58,162.11,426.89,161.93Z"/><path class="cls-6" d="M407.13,1.11c5,1.08,9.35,3.35,12.09,7.7,4.9,7.78.52,18-9,20.45-15,3.86-28,10.75-38,22.86A15.61,15.61,0,0,1,370,54c-1.45-1.2-1.24-3-1.63-4.58-2.12-8.53-8.23-12.34-16.78-10.46-1.57.35-3.16,1.25-4.75,0,14.63-20,34-32.61,58.42-37.24A11.18,11.18,0,0,0,407.13,1.11Z"/><path class="cls-3" d="M599.93,349.76V312.3c0-6.25,2-8.4,7.64-8.35,5.37,0,8.34,3.07,8.34,8.71v74.42c0,5.9-3,8.94-8.7,8.86-5.43-.08-7.27-2.28-7.28-8.72Q599.92,368.5,599.93,349.76Z"/><path class="cls-3" d="M85,349.88v-38c0-5.83,2.09-8,7.52-8,5.23,0,8.43,2.92,8.45,8.1q.07,38,0,75.92c0,5.11-3.32,8-8.57,8s-7.4-2.2-7.4-8.06Z"/><path class="cls-7" d="M346.84,39A63.91,63.91,0,0,1,354,37c9.35-1.41,17,7.48,16,17l-9,16c-3.85,7.84-16.71,8.13-22.4.32C336.21,67.08,333.74,63.5,336,59A52.16,52.16,0,0,1,346.84,39Z"/><path class="cls-4" d="M615.63,163.88A209.81,209.81,0,0,0,595,143c0-5.57,1.46-11,1.75-16.56.67-13-2.26-25.12-6.07-37.23-.1-.35.26-.85.4-1.27,6.91,8.24,13,16.91,17.43,26.86C615.5,130.58,616.87,147,615.63,163.88Z"/><path class="cls-6" d="M336,59c0,6.69,2.61,12.09,8.83,14.65C350.69,76,356.49,75.26,361,70c3.16,4.21-2.5,5.13-3,8a61.07,61.07,0,0,1-15,15c-5.77.15-8.9-3.72-11.75-7.87-.63-.91-.64-2.22-2.18-2.12a111.29,111.29,0,0,1,4.41-18.9C334.06,62.33,334.18,60.23,336,59Z"/><path class="cls-3" d="M752.41,459.86c2.66-5.32,5.22-10.13,7.48-15.07,1.07-2.32,2.48-3.16,5-2.87,3.1.35,2,2.65,2,4.19.13,6.5,0,13,.06,19.49,0,1.7.18,3.32-2.41,3.36s-2.62-1.33-2.61-3.18a92.41,92.41,0,0,0-.67-14.21c-2,3.85-4,7.7-5.94,11.56-.67,1.33-1.13,2.87-3.08,2.73-1.64-.12-2-1.48-2.62-2.66A76.1,76.1,0,0,0,743,451.84V465.7c0,1.77,0,3.26-2.51,3.26s-2.51-1.5-2.51-3.27v-20.5c0-1.39-.45-3.21,1.94-3.23,1.77,0,3.48-.42,4.54,1.89C746.83,449,749.55,454.18,752.41,459.86Z"/><path class="cls-3" d="M710.42,459.93c2.66-5.39,5.26-10.36,7.57-15.47,1.13-2.5,2.94-2.81,5.21-2.48,2.66.4,1.64,2.55,1.66,4,.11,6.5,0,13,.06,19.49,0,2,.08,3.64-2.76,3.51s-2.22-1.93-2.23-3.51V451.23c-3.17,3.89-4.41,8.1-6.53,11.8-.73,1.26-1.08,2.9-3,2.87s-2.29-1.67-3-3a74.2,74.2,0,0,0-6.51-11.09v13.71c0,1.65.31,3.34-2.33,3.43-2.93.09-2.67-1.74-2.67-3.61,0-6.5,0-13,.05-19.49,0-1.43-.94-3.52,1.75-3.9,2.36-.33,4,.17,5.15,2.59C705.18,449.62,707.77,454.58,710.42,459.93Z"/><path class="cls-3" d="M834.9,461.11c0-5.68-.09-10.27,0-14.85,0-1.71-1.11-4.24,2.35-4.34s2.56,2.32,2.58,4.12q.1,9.46,0,18.94c0,1.32.88,3.22-1.21,3.8a4.51,4.51,0,0,1-5.22-1.9q-4.74-6.57-9.57-13.08c-.65-.86-1.46-1.61-3-3.23,0,5.46,0,9.86,0,14.26,0,1.81.81,4.2-2.6,4.12-3-.08-2.33-2.2-2.35-3.87,0-6.48-.07-13,0-19.44,0-1.3-.86-3.26,1.44-3.62a4.15,4.15,0,0,1,4.61,1.9C825.87,449.51,830.14,454.83,834.9,461.11Z"/><path class="cls-3" d="M93,451.72c0,4.45,0,8.9,0,13.34,0,1.66.73,3.79-2.33,3.89S88,467.2,88,465.35V445.41c0-1.32-.73-3.22,1.68-3.43,1.69-.14,3.07,0,4.26,1.71,4,5.6,8.15,11,13,17.56,0-5.67-.1-10.2,0-14.72.07-1.83-1.27-4.68,2.57-4.6,3.46.07,2.3,2.64,2.34,4.34.11,6.14.11,12.3,0,18.44,0,1.44,1,3.54-1.43,4.13a4.68,4.68,0,0,1-5.15-2.14c-3.73-5.14-7.5-10.26-11.26-15.38Z"/><path class="cls-3" d="M554,441.94h7.47c1.55,0,2.57.36,2.47,2.22-.09,1.65-1.17,1.76-2.4,1.77-3,0-6,.23-9-.05-3.48-.32-3.66,1.54-3.65,4.2s.28,4.21,3.45,3.9c2.3-.23,4.64,0,7,0,1.42,0,2.66.11,2.6,2.08s-1.43,1.89-2.76,1.91c-2.33,0-4.67.16-7,0-2.79-.23-3.27,1.13-3.28,3.55s.53,3.7,3.3,3.53c3.15-.2,6.31,0,9.47,0,1.3,0,2.22.33,2.25,1.92s-.74,2-2.12,2c-5.15,0-10.3-.06-15.45,0-2.6,0-2.38-1.68-2.38-3.36,0-6.65.1-13.29-.05-19.93-.07-2.72.63-4,3.58-3.75C549.61,442.09,551.79,441.93,554,441.94Z"/><path class="cls-3" d="M267,454.29c.51-3.44-1.93-8.89,1-11.62,2.61-2.47,7.95-.84,12.05-.61,2.31.13,6.73-2.17,6.62,2.1-.09,3.61-4.31,1.1-6.6,1.72a9.2,9.2,0,0,1-3.47,0c-3.22-.4-4.72.41-4.71,4.19s1.69,4.05,4.54,3.85c2-.13,4,0,6,0,1.44,0,2.65.14,2.58,2.1s-1.47,1.87-2.79,1.89c-2.16,0-4.33.15-6.48,0-2.72-.23-3.77.64-3.79,3.57s1.22,3.65,3.86,3.5c3-.16,6,0,9,0,1.32,0,2.21.35,2.23,1.94s-.76,2-2.13,2c-5.15,0-10.3-.05-15.45,0-2.14,0-2.41-1.19-2.39-2.87C267,462.4,267,458.74,267,454.29Z"/><path class="cls-3" d="M254,461c0,6.06-6.33,9.53-14.17,7.74-6.29-1.43-12-9.57-10.59-15.22,2.06-8.39,8.93-12.56,16.93-11a40.56,40.56,0,0,1,4.22,1.18c1.74.55,3.21,1.56,2.37,3.58-1,2.37-2.26,1.09-3.86.21-4.43-2.44-10.63-1.13-13.33,2.44s-2,8.89,1.17,12.24c2.71,2.87,6,3.24,9.58,2.52s4.07-3.36,3.74-6.46c-.15-1.3.25-2.25,1.86-2.28s2.1.66,2.08,2.08C253.94,459,254,460,254,461Z"/><path class="cls-3" d="M148,461.62c1.24,4.58-2.21,5.72-5.94,6.79-6.78,1.95-13.82-.68-17-6.48s-2.07-12.2,3.27-16.77c4.07-3.47,12.9-4,17.13-1.07,1.44,1,2.12,2.18,1.07,3.74s-2,.58-3.3-.09c-5.07-2.68-11.36-1.35-13.95,2.71a9.74,9.74,0,0,0,2.69,12.8c2.89,2.07,6,2.17,9.38,1,3-1,2.76-3.31,2.72-5.65,0-1.39,0-2.66,2-2.66s2,1.32,2,2.69C148,459.48,148,460.31,148,461.62Z"/><path class="cls-3" d="M184,452.73c-.46,3,.59,6.61-.91,10.23-2.29,5.56-8.3,6.65-13.86,5.85-4.75-.69-8.12-5.11-8.21-10.23-.08-4.66,0-9.32,0-14,0-1.4.06-2.68,2-2.64s1.93,1.4,1.93,2.74c0,3.66-.06,7.32,0,11,.17,6.2,2.88,9.35,7.8,9.23,4.56-.1,7.14-3.43,7.18-9.32v-11c0-1.39,0-2.68,2-2.66s2,1.37,2,2.72C184,447.18,184,449.68,184,452.73Z"/><path class="cls-3" d="M495.93,452.68c-.47,3,.59,6.58-.87,10.21-2.22,5.52-8.15,6.72-13.82,5.93-4.78-.68-8.18-5-8.28-10.17-.08-4.65,0-9.31,0-14,0-1.36,0-2.7,2-2.71s2,1.28,2,2.67c0,3.82-.12,7.65,0,11.47.23,5.82,3,8.9,7.71,8.81s7.22-3.37,7.26-9.24v-11c0-1.35-.06-2.7,1.95-2.73s2,1.25,2,2.65C495.94,447.11,495.93,449.6,495.93,452.68Z"/><path class="cls-3" d="M802.89,452.63c-.38,3.34.85,7.36-1.31,11.13-2.28,4-7.75,6.21-13.36,5.11C784,468,780.15,464,780,459.68c-.21-5-.06-10,0-15,0-1.34-.07-2.7,1.94-2.74s2,1.24,2,2.64c0,3.82-.11,7.65,0,11.47.23,5.82,3,8.92,7.68,8.84s7.25-3.36,7.29-9.21v-11c0-1.33-.1-2.71,1.92-2.76s2.06,1.2,2.06,2.62Z"/><path class="cls-3" d="M405,452.73c-.46,3,.59,6.61-.9,10.22-2.29,5.56-8.3,6.66-13.86,5.86-4.76-.69-8.13-5.11-8.22-10.23-.08-4.65,0-9.31,0-14,0-1.4.06-2.67,2-2.64s1.94,1.39,2,2.74c0,3.65-.07,7.32,0,11,.17,6.17,2.9,9.36,7.8,9.24,4.56-.1,7.14-3.43,7.18-9.31v-11c0-1.39,0-2.68,2-2.66s2,1.36,2,2.71C405,447.18,405,449.67,405,452.73Z"/><path class="cls-3" d="M636.89,469c-6.28,0-10.83-3.32-12.94-9.35-1.91-5.47-.13-11.12,4.69-14.85,4-3.09,11.59-3.42,15.77-.57,1.08.74,2.68,1.35,1.65,3.44-1.28,2.59-2.64.45-3.63.08-5.82-2.19-10.95-1.15-13.4,3a9.59,9.59,0,0,0,2.64,12.42,8.93,8.93,0,0,0,11.06.27c1.76-1.21,2.55-.85,3.55.49,1.53,2-.79,2.08-1.56,2.74C642.49,468.51,639.74,469,636.89,469Z"/><path class="cls-3" d="M360.3,468.93c-6.81-.05-11.23-3.31-13.33-9.46-1.83-5.33-.2-10.65,4.44-14.47,4-3.32,11.09-3.83,15.7-1,1.25.78,3.15,1.42,1.91,3.71-1.34,2.48-2.66.29-3.66-.1-7.65-3-14.22.34-14.4,7.42a9.46,9.46,0,0,0,14.1,8.79c1.61-.84,3-2.42,4.33.13s-1.6,2.62-2.55,3.26A9.2,9.2,0,0,1,360.3,468.93Z"/><path class="cls-3" d="M897.28,442.36c5.17-2,5.25,2.68,7,4.72s2.22,5.48,5,7.62c1.58-2.72,3.1-5.31,4.6-7.92s2.47-6,7-4.22c-2.75,4.87-5.3,9.61-8.07,14.22a15.84,15.84,0,0,0-2,9.48c.08,1.4-.06,2.71-2,2.62-1.18,0-2.06-.52-1.88-1.72,1.22-8.54-4.73-14.32-8-21.11C898.36,444.87,897.86,443.66,897.28,442.36Z"/><path class="cls-3" d="M26,455.39V445c0-1.94.34-3.13,2.71-3.05,2.16.07,2.33,1.28,2.32,2.92,0,5.3.15,10.61-.07,15.91-.13,3.13.69,4.64,4.09,4.24a50,50,0,0,1,6,0c1.49,0,2,.76,2,2.18a1.64,1.64,0,0,1-1.51,1.78,1.53,1.53,0,0,1-.37,0H28.25c-2.26,0-2.14-1.56-2.14-3.08C26,462.35,26,458.87,26,455.39Z"/><path class="cls-3" d="M418,455.12V444.67c0-1.76.43-2.77,2.48-2.77s2.56.87,2.54,2.7c0,5.47.14,10.95-.07,16.41-.11,3,.71,4.3,3.87,4a53.55,53.55,0,0,1,6.46,0c1.25,0,1.67.77,1.68,1.93s-.41,1.94-1.66,1.95H419.88c-2,0-1.85-1.5-1.86-2.83C418,462.41,418,458.76,418,455.12Z"/><path class="cls-3" d="M453.15,441.94h8c1.31,0,2.71-.14,2.79,1.88s-1.17,2.36-2.56,2.06c-6.68-1.44-6.7,2.62-6.45,7.35.23,4.3.05,8.62,0,12.93,0,1.35.05,2.69-1.95,2.73s-2-1.25-2-2.64c0-5.31-.21-10.63.06-15.92.18-3.46-.85-5-4.4-4.42a17.11,17.11,0,0,1-2.48,0c-1.36,0-2.16-.46-2.15-2s.88-2,2.2-2Q448.68,442,453.15,441.94Z"/><path class="cls-3" d="M876.89,457.24c0-1.32-.09-2.66,0-4,.4-4.67.36-8.84-6.39-7.38-1.35.29-2.64-.07-2.59-2s1.43-1.91,2.76-1.91h16.42c1.33,0,2.7-.08,2.74,1.92s-1.25,2.31-2.6,2c-6.77-1.46-6.64,2.72-6.41,7.39.22,4.31,0,8.63,0,12.94,0,1.37,0,2.68-2,2.68s-2-1.32-2-2.69C876.89,463.21,876.9,460.23,876.89,457.24Z"/><path class="cls-3" d="M319,455.89v13.92c0,1.43.32,3.15-2.08,3.06S315,471,315,469.62q-.06-14.16,0-28.32c0-1.35-.58-3.2,1.82-3.31,2.79-.12,2.11,2,2.13,3.49C319,446.28,319,451.09,319,455.89Z"/><path class="cls-3" d="M595.93,455.42c0,4.64.05,9.28,0,13.92,0,1.47.71,3.6-2.09,3.52-2.4-.07-1.85-1.91-1.86-3.27q-.06-14.16,0-28.33c0-1.34-.56-3.19,1.85-3.27,2.8-.09,2.07,2,2.1,3.51C596,446.14,595.93,450.78,595.93,455.42Z"/><path class="cls-3" d="M852.9,455.44V445c0-1.87.22-3.18,2.63-3.11,2.1.06,2.4,1.15,2.39,2.85v21.34c0,1.68-.25,2.8-2.37,2.87-2.4.07-2.69-1.21-2.65-3.1C852.94,462.39,852.9,458.91,852.9,455.44Z"/><path class="cls-8" d="M511,57.94c-1.74-1.19-2.74.47-4,1.06-2.52,1.66-5.12,2.66-8,1-.64-3.33-1.57-6.67,0-10,.94-2.2,2-4.2,4.92-4C508,49,508.38,54.1,511,57.94Z"/><path class="cls-8" d="M503.89,46,499,50c-2.51-2.14-2.8-5.12-3.34-8.12-.66-3.7-1.76-7.32-2.66-11C497.87,35,501.8,39.86,503.89,46Z"/><path class="cls-9" d="M498.94,60c2.71,0,5.25-1.5,8-1,4.88,1.81,8.88,4.23,10.9,9.68,2.84,7.63-2.83,16.63-9.9,18.2a68.61,68.61,0,0,0-28.5,13.41C474.81,104,470.92,108.55,467,113c-1.46-1.21-1.27-2.93-1.38-4.55-.62-8.44-5.45-12.58-14-12.16-2.27.11-4.4,1.53-6.75.66,4.59-8.21,11.61-14.11,18.77-19.91C474.13,68.63,486.29,63.82,498.94,60Z"/><path class="cls-10" d="M444.92,97c8-3.86,15.21-2.52,20.09,3.57,3.07,3.83,1.51,8.29,2,12.48L458.9,128c-4.35,5.65-9.78,6.91-16,3.71-1.79-6,2.15-13.27,8.21-13.76,5.28-.42,3.81,4,3.69,7.07,0,.66,0-.19.16.44.05.17.6,0,.87-.25,1.2-1.28.86-2.6.12-3.92-2.87-4.37-3.88-4.61-8.29-2.16-3.89,2.16-5.83,6.14-8.74,9.21a2.25,2.25,0,0,1-1.49-.15c-3.51-3-5.47-6.48-3.47-11.19C436.15,109.51,439.42,102.64,444.92,97Z"/><path class="cls-11" d="M436.94,95.55c-.09,7-6.17,12.51-13.84,12.43A13.21,13.21,0,0,1,410,94.7c0-.2,0-.39,0-.58A13.45,13.45,0,0,1,423.41,81C431.37,81,437.06,87.1,436.94,95.55Z"/><path class="cls-11" d="M380.63,108c-8,0-14.1-5.82-14.13-13.44A13.46,13.46,0,0,1,379.92,81h.15c7.27,0,13.86,6.57,13.74,13.63C393.69,101.36,387.14,108,380.63,108Z"/><path class="cls-9" d="M433.92,117c-.5,4.37,1.68,7.75,4.08,11,1.51,1.84.51,3.86.3,5.77-.58,5.31.91,9.53,5.94,12,2,1.76,4.69-.38,6.74,1.12-3.61,3.91-7.9,4.77-12.93,3.23-6.56-2-9.38-6.73-10.12-13.14C429,130,429.54,122.93,433.92,117Z"/><path class="cls-6" d="M343,93a123.56,123.56,0,0,1,15-15C357.72,88.16,353,92.93,343,93Z"/><path class="cls-12" d="M478.87,131c-5.82-1-8.16-3.37-7.92-8.11.22-4.4,3.4-6.9,9.08-6.94,9.64,0,19.28-.16,28.92.06,3.9.09,5.6-.84,5.3-5.17a40.75,40.75,0,0,1,.54-12.37c1-4.16,4-5.4,7.33-5.15,3.67.26,6.59,2.44,6.78,6.65a84.28,84.28,0,0,1,0,11.46c-.37,3.93,1.22,4.63,4.79,4.59,11.45-.12,22.91.12,34.36.22,3.92,2.34,7.78,4.73,8.9,9.66-1.58,4.8-5.46,5.08-9.63,5.06-8.73,0-8.58.06-11.37,8.38-4.39,13.09-10.5,25.25-20.13,35.39a38.55,38.55,0,0,0-2.67,3.57,86.56,86.56,0,0,0,20.2,9.75c4.88,1.69,6.83,5.26,5.52,10-1.06,3.83-4.57,4.86-9.61,4.08-4.66-.72-8.24-4.93-13.56-3.59-1.39.35-1.56-2.78-3.46-3.77-3-1.55-6.23-2.82-8.6-5.43-2-2.2-3.72-.08-5.11.83a97.42,97.42,0,0,1-25.27,12.12c-4.27,1.29-7.27-.27-9-3.92-1.93-4.18.16-8.3,4.6-9.89a104.48,104.48,0,0,0,18.41-8.35c2.4-1.43,2.84-2.47.68-4.67A76.37,76.37,0,0,1,493,153.4c-2.22-4.87-1.11-7.68,3.82-10.55,4-2.28,6.85-.21,9.54,2.5a94.31,94.31,0,0,0,12.1,18.27c2.1,2.52,3.46,2.81,5.83.16,7.13-8,11.82-17.25,15.76-27,1.37-3.39.39-4.53-3.12-4.49-10.65.09-21.31,0-32,.07h-8.46a41.11,41.11,0,0,1-6.84,0h-3.09c-2.13-.07-4.28.21-6.38-.37A3.47,3.47,0,0,1,478.87,131Z"/><path class="cls-2" d="M489.86,131.09H496c.93.76,1.14,3.54,3.24,1,.84-1,2.48-.26,3.56-1H505c4.56,1.23,4.46,4.23,3,7.76-1,1.78-.68,3.66-.41,5.53-.18,1-.26,2-1.72,1.66a11.68,11.68,0,0,0-9-3.14c-.34-1.3-.67-2.6-1-3.9-2.38-1.4-2.83,1.11-4.08,2-2.38,1-3.84,6-7.52,1.71-.21-.24-1.71.68-2.63,1-1.3.45-2.46,1.85-4,.43a4.06,4.06,0,0,1-1.26-4.9,4.77,4.77,0,0,0,.35-3.61c-1.86.38-2.59,1.59-2.75,3.34-1.25,1.76-.65,4.92-3.92,5.17-2.61-1.36-5.52,1.85-8.07-.54-2.42,2.92-4-.82-6.06-.75a2.17,2.17,0,0,1-1.55-2.21c.63-2.73.28-5.94,3.6-7.34,2.44-.7,4.59-2.76,7.47-1.3a2.2,2.2,0,0,1,1.49,2.24,1.62,1.62,0,0,1-1.39,1.74c-2.1.48-.86-1.3-1.25-1.72-2.51-2.67-3,.65-4.33,1.64-.34,1.45-1.54,2.69-1,4.34,1.25,3.22,2.33.83,3.38-.14s.94-2.92,2.54-2.67c2.08.31.41,2.67,1.56,3.73,3.75-.3,3.57-3.6,4.41-6,.91-2.65.8-2.69,3.25-1.23.72.43.72.43,4.85-2.8l1.21.07c3.44,2.07.93,5.07,1.24,8.2,1.66-1.49,1.77-3.3,2.27-4.86s1.06-3.21,3.28-2.94c3.54,1.12,1.32,4.14,2.2,6.49C489.59,135.54,488,133,489.86,131.09Z"/><path class="cls-13" d="M457.91,133.24c-1.82,2.23-1.71,5.21-3,7.65-1.83,3.43-4.81,4.65-8.53,4.28a5.9,5.9,0,0,1-5.65-5.17c-.05-2.9-.64-5.84.66-8.63a1.14,1.14,0,0,1,1.5-.45c6,2.56,11.19.82,16-3Z"/><path class="cls-13" d="M441.92,140.1c2.65,5.29,6.38,5.52,13,.79.31.63.63,1.26.94,1.9L451,146.24c-2.35.25-4.53,2.17-7.06.76-6.69-3.68-8.41-7.52-6.81-15.16.27-1.28.56-2.56.84-3.84h.92c1.37.63,2.46,1.48,2.52,3.15C441.59,134.1,440.54,137.16,441.92,140.1Z"/><path class="cls-14" d="M576.91,125.94l-8.9-9.66C575.24,116,578.18,119.15,576.91,125.94Z"/><path class="cls-2" d="M470,144c2.41-.89,2-3.92,3.92-5.17C473.37,141.21,474.46,144.75,470,144Z"/><path class="cls-9" d="M444,147c2.44.53,4.6-1.5,7.06-.77V147C448.64,147.13,446.33,149.32,444,147Z"/><path class="cls-15" d="M473.86,191.12c0,1.24-.55,1.29-1.28,1.29s-1.69,0-1.52-1.17c.13-.92.88-.66,1.49-.69S473.9,190.46,473.86,191.12Z"/><path class="cls-2" d="M491.76,141c.79-1.83,1.21-4.42,4.08-2C494.1,138.84,493.28,140.61,491.76,141Z"/><path class="cls-2" d="M458.88,140.18c-1.59-1.9-.15-3.09,1-4.34A7,7,0,0,1,458.88,140.18Z"/><path class="cls-3" d="M433.86,338.35c-1.48-7.56-4.23-14.61-9.49-20.52-6.69-7.54-14.92-11.63-24.93-13.2-16.8-2.62-32.73,2.35-42.65,16.82-8.35,12.18-9,25.57-6.85,39.54,4.72,30.17,35.29,41.94,60.27,31.18,18.35-7.91,24-23.64,24.77-42C435.66,346.09,434.62,342.18,433.86,338.35ZM418,349.72c-.27,10.77-1.84,21.38-11.53,27.86-14.64,9.79-34.63,4-39.34-15.89-2.23-9.44-2.08-19,1.66-28.48,5-12.55,17-17.09,29.4-14.66C411.05,321,418.63,335.11,418,349.72Z"/><path class="cls-16" d="M398.19,318.55c-12.43-2.43-24.42,2.11-29.4,14.66-3.74,9.43-3.89,19-1.66,28.48,4.71,19.91,24.7,25.68,39.34,15.89,9.69-6.48,11.26-17.09,11.53-27.86C418.63,335.11,411.05,321,398.19,318.55Z"/><path class="cls-3" d="M529.25,456.71c4.56-4.72,1.31-12-5.16-13.83-3.92-1.08-7.86-.8-11.81-1-2.67-.14-3.44.89-3.38,3.46.13,6.66,0,13.33,0,20,0,1.85-.29,3.7,2.65,3.62,2.65-.07,2.56-1.8,2.3-3.4-.72-4.39,1.65-4.81,5.17-4.71,3.27.09,4,2.52,5,4.62,1.33,2.81,3.06,4.22,6.52,3.07a10.68,10.68,0,0,0-1.2-2.56C526.55,462.9,525.53,460.56,529.25,456.71Zm-11.34.21c-5.7,1.1-3.56-3.45-4-6.31-.54-3.58.62-5.08,4.52-4.76,5,.41,8.51,2.45,8.43,5.67C526.79,455,523.63,457,517.91,456.92Z"/><path class="cls-3" d="M671.24,442c-7.62-.44-14.53,6.36-14.26,13.39.23,6.2,5.89,13.89,14.19,13.54,8.1-.34,13.73-5.26,13.75-12.87C685.61,445.89,677.82,442.45,671.24,442Zm.23,22.84a9.13,9.13,0,0,1-9.56-8.68c0-.34,0-.67,0-1,.07-5,4.32-9.32,9.1-9.28a10.36,10.36,0,0,1,9.89,10.18,9.26,9.26,0,0,1-9.44,8.83Z"/><path class="cls-3" d="M210.29,444.59c-.72-1.67-1.63-2.79-3.67-2.66s-2.44,1.49-3,2.85c-3.41,7.82-6.8,15.66-10.38,23.91,2,.15,4.13,1,4.56-.6,1.9-7.07,7.46-4.8,12.07-5.2,2.66-.23,4.41.47,5.22,3.21s2.72,3.51,5.69,2.36Q215.49,456.52,210.29,444.59Zm-4.7,6.13c.37-.85.64-1.75,1.39-3.79l4.6,11.66C201.69,459.53,201.7,459.53,205.59,450.72Z"/><path class="cls-3" d="M68.4,444.76c-.7-1.59-1.45-2.93-3.57-2.84-1.87.08-2.52,1.28-3.14,2.7q-5.17,11.94-10.38,23.86c2.92,1.14,4.81.32,5.63-2.4,1.51-5.06,5.64-2.86,8.73-3.06,2.71-.17,6.17-1.37,7.34,2.9.74,2.71,2.54,3.68,5.74,2.56C75.22,460.4,71.8,452.58,68.4,444.76ZM60.72,458.6c0-4,3-6.86,4.15-11.74l4.79,11.74Z"/><path class="cls-10" d="M441,131c-.62-1-2.16-1.47-2-3,.88-4.64,4.4-7.32,7.85-9.76,3.84-2.7,7.55-1.42,10.24,2.89.47,1.68,1,3.37-.32,4.93-1,1.06-1.88,2.75-3.56,1.69-1.36-.87.21-2,.42-3,.43-2.1,1.29-5.31-.76-5.77-2.9-.65-6,1.53-7.52,4.08-1.38,2.27-2.8,4.91-2.37,7.89l-1,.13C441.58,131.48,441.25,131.44,441,131Z"/><path class="cls-10" d="M456.69,126c.11-1.64.22-3.29.32-4.93C458.37,122.82,458.58,124.49,456.69,126Z"/><path class="cls-2" d="M506.92,139c1-3,1.72-6-1.9-8,11.45,0,22.9,0,34.35-.11,3.31,0,3.81.69,2.74,4-3.93,12.1-13.15,27.46-20.93,33.84C515.3,161.7,508.91,155,505.87,146c.95-.34,1.06-1.11,1-2A6.15,6.15,0,0,1,506.92,139Z"/><path class="cls-2" d="M486.93,131.75c-3,1.13-2.19,4.1-2.79,6.27s-1.92,3.62-3.61,3.23c-2.5-.57-.57-2.82-.36-4.06.36-2.1,1.24-4.05-.09-6.09l6.85.12Z"/><path class="cls-2" d="M486.93,131.75v-.53l2.93-.14c.4,1.87-.6,4,.89,5.65,1.27,1.41-.17,2-.84,2.74-.39.42-1.4,1-1.56.81a2.89,2.89,0,0,1-1-3.06C487.91,135.33,488.62,133.46,486.93,131.75Z"/><path class="cls-2" d="M502.82,131c-2.82.78-4.39,3.61-7.46,4.86.12-2,1.21-3.34.66-4.88Z"/><path class="cls-17" d="M500.93,134.77c2.11-2.8,3.79-2,3.53,1-.21,2.24-.32,5.93-4.56,5.3C498.78,138.75,499.75,136.74,500.93,134.77Z"/><path class="cls-2" d="M500.93,134.77c-.34,2.11-.69,4.21-1,6.32Q497.26,137.41,500.93,134.77Z"/><path class="cls-2" d="M506.92,139v5a3.42,3.42,0,0,1-.17-4.83Z"/><path class="cls-9" d="M441,131a3.07,3.07,0,0,1,1,.07v9C439.1,137.33,441.08,134,441,131Z"/><path class="cls-3" d="M948.06,337.88c-1.48-7.55-4.24-14.61-9.49-20.52-6.69-7.53-14.92-11.63-24.93-13.19-16.8-2.63-32.74,2.35-42.65,16.81-8.36,12.19-9,25.57-6.85,39.55,4.72,30.16,35.29,41.94,60.27,31.17,18.35-7.9,24-23.64,24.77-42C949.85,345.63,948.81,341.72,948.06,337.88ZM932.2,349.25c-.27,10.77-1.84,21.39-11.53,27.87-14.64,9.79-34.63,4-39.34-15.89-2.23-9.44-2.09-19.05,1.66-28.49,5-12.54,17-17.08,29.4-14.65C925.25,320.6,932.83,334.65,932.2,349.25Z"/><path class="cls-16" d="M912.39,318.09C900,315.66,888,320.2,883,332.74c-3.75,9.44-3.89,19.05-1.66,28.49,4.71,19.91,24.7,25.68,39.34,15.89,9.69-6.48,11.26-17.1,11.53-27.87C932.83,334.65,925.25,320.6,912.39,318.09Z"/></g></g></g></svg>