<svg xmlns="http://www.w3.org/2000/svg" viewBox="0 0 286.69 267.59"><defs><style>.cls-1{fill:#b3b3b3;}.cls-2{fill:gray;}.cls-3{fill:#4d4d4d;}.cls-4{fill:#1a1a1a;}.cls-5{fill:#e6e6e6;}.cls-6{fill:#f2f2f2;}.cls-7{fill:#333;}.cls-8{fill:#ccc;}.cls-9{fill:#666;}.cls-10{fill:#999;}</style></defs><g id="Layer_2" data-name="Layer 2"><g id="Layer_4" data-name="Layer 4"><path class="cls-1" d="M98.05,161.89c-1.62-7.25-.77-14.49,0-21.73.13-1.14-.11-2.36,1-3.19,1.47,1.06,1.77,2.76,2.26,4.3,2.14,6.75,12.52,11.72,19.43,5.22a13.16,13.16,0,0,1,.86-1.11,9.71,9.71,0,0,1,5.4-3.24c4.61,1.41,9.34.44,14,.66,3,0,2.48-2.51,3-4.25a3.86,3.86,0,0,1,.7-1.82c.85-.95,1.71-2.29,3.18-1.68,1.22.51,1.19,1.94,1,3.06-.8,4.23.47,5.24,4.77,4.06,2.91-.79,6.47.88,8.85-2.29,1.5-.86,2.9-2.16,4.84-1.13a4.1,4.1,0,0,1,1.2,4.23c-4.87,5.73-5.23,7.23-1.24,14.14,3.31,5.74,6.8,11.43,11.48,16.27,4,4.17,3.76,5.73-1.35,8.66a111.7,111.7,0,0,1-15.41,7.07c-4.89,1.88-6.62,4.8-5.21,8.56,1.24,3.3,4.5,4.32,9.37,2.68a93,93,0,0,0,21.49-10.48c3.5-2.3,6.39-2.83,9.9,0,3,2.34,6.24,5.13,9.32,6.3,5.26,2,10.59,4.78,16.49,4.94a4.67,4.67,0,0,0,5.17-4.36c.46-3.09-.35-5.61-3.54-6.89a138,138,0,0,1-16.81-7.61c-5.33-3-5.67-4.54-1.6-9.06,9.68-10.71,15.92-23.29,20.06-37,1.88-6.19,2.06-6.39,8.65-6.51,4.26-.08,8.86.69,11.53-4,.73-6.14-1.59-8.29-9-8.32q-16,.16-31.95,0c-6.17,0-7.12-1.12-7.29-7.37-.09-3,.16-6-.21-9-.42-3.36-2.14-5.69-5.69-5.84s-4.89,2.32-5.64,5.28-.5,6-.55,8.94c-.12,7.09-.93,7.92-8.18,8-7.82.07-15.64,0-23.46,0a37.26,37.26,0,0,0-4.48.14c-3,.36-5.56,1.48-6.35,4.7-.74,3.06.94,5.06,3.42,6.54.57.34,1.15.67,1.7,1,2.43,4-1.54,4.87-3.29,4.93-2.46.09-2.87,1.06-3.57,2.85-1.12,2.88-2.24,6.29-6.4,2.9-1.34-1.09-1.91.7-2.79,1.19-2,1.14-3.45,1-3.86-1.61a19.7,19.7,0,0,1,.85-4.16c2.91-4.24,3.76-4.46,6.52-1.83-.81-1.56-1.94-2.42-3.83-1.48-1.34.67-2.65,1.57-4.11.27-1-1.74-.22-3.38.24-5a98.39,98.39,0,0,1,8.45-15.48c10.27-14,24.22-22.35,40.82-26.8,8.57-2.3,12.27-10,8.93-17.79A12.52,12.52,0,0,0,181,61.56c-1.15-.59-2.62-.71-3.16-2.19.83-2.27,1.92-3.79,4.32-1.47,15.17-1.87,29.67.74,44,5.9,14.08,5.08,25.76,13.5,36.09,24.08,7.61,17.56,8.94,35.72,5.17,54.37-6,30-22.73,52.34-48.34,68.45a128.24,128.24,0,0,1-33.64,12c-15.81,3.28-31,1.2-46.23-3-5.6-1.54-10.81-4.19-16.46-5.68-2.67-.7-3.85-4.06-6.66-5-2.15-3.25-5-6.08-6-10-5.83-4-7-10.81-8.89-16.79a138.64,138.64,0,0,1-3.76-13.68C96.92,166.28,96.37,164,98.05,161.89Z"/><path class="cls-2" d="M116.53,209.55c5.32,2.27,10.52,4.88,16,6.76,12.75,4.39,25.6,7.69,39.46,6.87,15.21-.9,29.52-4.13,42.9-11.39a8.22,8.22,0,0,1,4.71-1.38c4.81,2.27,7.86,6.63,11.45,10.21,4.08,4.06,8.83,7.63,11.67,12.85-4.91,3.56-10.17,6.9-16,8.12-9.56,2-14.74,8.82-20.21,15.71-2.51,3.16-4.18,7.06-8.26,8.91-5.1,2.3-9.61,1.83-13.55-2.27-3.15-3.26-6.43-6.53-8.89-10.29a25.84,25.84,0,0,0-14.72-11.37C142.71,236.43,128.24,224.74,116.53,209.55Z"/><path class="cls-2" d="M238.66,236a341.41,341.41,0,0,1-24.57-24.3c4-5.29,10.22-7.73,15.13-11.91a105.37,105.37,0,0,0,23.19-28.1,108,108,0,0,0,11.69-30.52c.16-.06.4-.22.48-.16,8.44,6.18,16.5,12.72,21.51,22.17a98.45,98.45,0,0,1-19.2,47.7C259.27,221,250.22,230,238.66,236Z"/><path class="cls-3" d="M98.05,161.89A90.16,90.16,0,0,0,110,199c-1.37-.28-2.15.54-2.86,1.52-1.06,1.48-1.91,3.2-3.24,4.36-7.32,6.31-11.66,7.44-18.69-.4-4.38-4.88-8.35-10.13-12.44-15.26A8.87,8.87,0,0,0,68,186C48.15,181,33.09,168.81,19.82,154A18,18,0,0,1,18.06,151c3.79,0,6.37,2.86,9.38,4.4a93.9,93.9,0,0,0,28.76,9c12.59,1.91,25.39.66,37.93-2C95.41,162.15,96.74,162.07,98.05,161.89Z"/><path class="cls-4" d="M78.29,1.07c5,1.08,9.35,3.35,12.09,7.7,4.9,7.78.51,18-9,20.45-15,3.86-28,10.75-38,22.86A16.28,16.28,0,0,1,41.16,54c-1.45-1.2-1.25-3-1.64-4.58C37.41,40.9,31.3,37.09,22.75,39c-1.58.35-3.17,1.25-4.75,0C32.63,19,52,6.36,76.42,1.73A11.9,11.9,0,0,0,78.29,1.07Z"/><path d="M18,39A62.71,62.71,0,0,1,25.16,37c9.34-1.41,17,7.48,16,17q-4.52,8-9,15.95c-3.85,7.84-16.71,8.13-22.41.32C7.34,67,4.87,63.42,7.12,58.93A52,52,0,0,1,18,39Z"/><path class="cls-2" d="M286.29,163.34a211.4,211.4,0,0,0-20.68-20.9c0-5.57,1.46-11,1.75-16.56.67-13-2.27-25.12-6.07-37.23-.11-.35.26-.85.4-1.27,6.91,8.24,13,16.91,17.42,26.86C286.15,130,287.52,146.45,286.29,163.34Z"/><path class="cls-4" d="M7.12,58.93C7.07,65.62,9.73,71,16,73.58,21.85,76,27.65,75.22,32.14,70c3.15,4.21-2.5,5.13-3,8a61.22,61.22,0,0,1-15,15c-5.77.15-8.91-3.72-11.75-7.87C1.73,84.2,1.72,82.89.17,83a113.23,113.23,0,0,1,4.41-18.9C5.22,62.29,5.34,60.19,7.12,58.93Z"/><path class="cls-3" d="M182.14,58.83c-1.91-1.28-3,.52-4.38,1.15-2.74,1.79-5.57,2.87-8.75,1-.69-3.59-1.7-7.18,0-10.77,1-2.37,2.21-4.53,5.37-4.28C178.9,49.14,179.31,54.7,182.14,58.83Z"/><path class="cls-3" d="M175.05,46l-4.92,4c-2.52-2.14-2.8-5.12-3.34-8.12-.67-3.7-1.76-7.32-2.67-11C169,35,173,39.82,175.05,46Z"/><path class="cls-5" d="M169.92,61.06c2.78,0,5.38-1.52,8.23-1,5,1.82,9.1,4.26,11.17,9.75,2.9,7.69-2.9,16.75-10.15,18.33a70.84,70.84,0,0,0-29.2,13.5c-4.77,3.76-8.75,8.32-12.76,12.84-1.5-1.22-1.3-3-1.42-4.58-.63-8.5-5.58-12.67-14.3-12.25-2.33.12-4.51,1.55-6.92.67,4.71-8.27,11.9-14.21,19.24-20C144.5,69.78,157,64.94,169.92,61.06Z"/><path class="cls-6" d="M116.07,97c8-3.86,15.21-2.52,20.09,3.57,3.07,3.83,1.52,8.29,2,12.48l-8.12,14.91c-4.34,5.65-9.77,6.91-16,3.71-1.8-6,2.15-13.27,8.21-13.76,5.27-.42,3.8,4,3.68,7.07,0,.66,0-.19.17.44,0,.17.6,0,.87-.25,1.2-1.28.86-2.6.11-3.92-2.86-4.37-3.88-4.61-8.29-2.16-3.88,2.16-5.82,6.14-8.74,9.21a2.23,2.23,0,0,1-1.48-.15c-3.51-3-5.47-6.48-3.47-11.19C107.31,109.47,110.58,102.6,116.07,97Z"/><path class="cls-7" d="M172,50.12c-1-2.61-2.2-5.1-2.72-7.84-.77-4-1.35-8.06-3.94-11.43-1.31-2.79-4-4.32-6.11-6.33-11.52-11-25.37-17.73-40.78-21.66C105.33-.48,92.16-.64,78.86,1.07,78.8,3.34,80.8,2.91,82,3.38c6.18,2.35,10,7.31,9.59,12.54-.52,6.4-4.55,11-11.1,12.44a72.18,72.18,0,0,0-15.46,5.56C55.38,38.45,47.47,45.29,40.8,53.56c-3.41,5.32-7.25,10.4-9.06,16.57,0,1.35,2.75,3.11-.86,4-1.51.36-2.19,2.34-2.58,4-1.43,9.9-4.61,13-13.92,13.7-4.8.43-7.26-2.94-10-6C3.25,84.57,3.1,81.67.18,83c.2,9.73-1,19.54,1,29.19,2.91,14.12,8,27.36,17,38.84,2.15,1,3.47,3.09,5.66,4.08,14.21,6.41,28.55,12,44.68,11.29,8.57-.35,17.08-.69,25.49-2.45,1.93-.4,4-.54,5.39-2.33a5.43,5.43,0,0,0,.4-3.39c-1.31-7,.24-13.8.88-20.68,1.69-6.69,2.11-13.76,5.91-19.84,2.69-7.38,6.06-14.38,11.17-20.45,10-13.49,22.44-23.92,38.25-30.46,5.31-2.2,11.3-3.14,15.86-7.07C172.42,56.53,171.69,53.32,172,50.12ZM51.79,107.94c-8,0-14.1-5.82-14.13-13.44A13.46,13.46,0,0,1,51.23,81C58.5,81,65.09,87.52,65,94.58,64.85,101.32,58.3,108,51.79,107.94Zm42.47,0A13.21,13.21,0,0,1,81.11,94.08,13.46,13.46,0,0,1,94.57,81c8,0,13.64,6.11,13.53,14.56C108,102.56,101.93,108,94.26,107.94Z"/><path class="cls-5" d="M106.08,118.91c-.51,4.37,1.67,7.75,4.07,11.05,1.51,1.84.52,3.86.31,5.77-.58,5.31.91,9.53,5.94,12,2,1.76,6.63-4,8.69-2.51-3.61,3.9-9.85,8.4-14.89,6.86-6.55-2-9.38-6.73-10.12-13.14C101.18,132,101.69,124.89,106.08,118.91Z"/><path class="cls-4" d="M14.11,93a122.8,122.8,0,0,1,15-15C28.88,88.12,24.11,92.89,14.11,93Z"/><path class="cls-1" d="M161,131.05l6.16,0c.94.76,1.15,3.54,3.25,1,.84-1,2.48-.26,3.56-1l2.2,0c4.56,1.23,4.45,4.23,3,7.76-1,1.78-.67,3.66-.4,5.53-.18,1-.26,2-1.73,1.66a11.66,11.66,0,0,0-9-3.14c-.33-1.3-.66-2.6-1-3.9-2.37-1.4-2.83,1.11-4.08,2-2.38,1-3.83,6-7.51,1.71-.21-.24-1.71.68-2.63,1-1.31.45-2.46,1.85-4.05.43a4.08,4.08,0,0,1-1.26-4.9,4.73,4.73,0,0,0,.36-3.61,3.26,3.26,0,0,0-2.75,3.34c-1.25,1.76-.66,4.92-3.92,5.17-2.61-1.36-5.53,1.85-8.07-.54-2.42,2.92-4-.82-6.07-.75a2.19,2.19,0,0,1-1.55-2.21c.64-2.72.28-5.94,3.61-7.34,2.43-.7,4.58-2.76,7.46-1.3a2.22,2.22,0,0,1,1.5,2.24,1.64,1.64,0,0,1-1.39,1.74c-2.1.48-.86-1.3-1.26-1.72-2.51-2.67-3,.65-4.32,1.64-.35,1.45-1.54,2.69-1,4.34,1.25,3.22,2.33.83,3.37-.14s.94-2.92,2.55-2.67c2.08.31.41,2.67,1.56,3.73,3.74-.3,3.57-3.6,4.41-6,.91-2.65.8-2.69,3.24-1.23.72.43.72.43,4.86-2.8l1.21.07c3.43,2.07.93,5.07,1.24,8.2,1.65-1.49,1.76-3.3,2.26-4.86s1.07-3.21,3.29-2.94c3.53,1.12,1.32,4.14,2.19,6.49C160.75,135.5,159.19,133,161,131.05Z"/><path class="cls-8" d="M129.07,133.2c-1.82,2.23-1.71,5.21-3,7.65-1.84,3.43-4.81,4.65-8.53,4.28a5.92,5.92,0,0,1-5.66-5.17c0-2.9-.63-5.84.66-8.63a1.15,1.15,0,0,1,1.51-.45c6,2.56,11.18.82,16-3C129.72,129.67,129.4,131.43,129.07,133.2Z"/><path class="cls-8" d="M113.07,140.06c2.66,5.29,6.38,5.52,13,.79l.93,1.9-4.82,3.45c-2.36.25-4.53,2.17-7.07.76-6.68-3.68-8.41-7.52-6.8-15.16.26-1.28.55-2.56.83-3.84l.93,0c1.36.63,2.45,1.48,2.52,3.15C112.74,134.06,111.7,137.12,113.07,140.06Z"/><path class="cls-1" d="M141.15,144c2.41-.89,2-3.92,3.92-5.17C144.53,141.17,145.61,144.71,141.15,144Z"/><path class="cls-5" d="M115.12,147c2.44.53,4.6-1.5,7.07-.77,0,.24,0,.46-.06.69C119.8,147.09,117.49,149.28,115.12,147Z"/><path class="cls-9" d="M145,191.08c0,1.24-.55,1.29-1.29,1.29s-1.69,0-1.51-1.17c.13-.92.87-.66,1.49-.69S145.06,190.42,145,191.08Z"/><path class="cls-1" d="M162.91,140.91c.79-1.83,1.21-4.42,4.08-2C165.25,138.8,164.43,140.57,162.91,140.91Z"/><path class="cls-1" d="M130,140.14c-1.59-1.9-.16-3.09,1-4.34A7,7,0,0,1,130,140.14Z"/><path class="cls-6" d="M112.11,130.94c-.62-1.05-2.17-1.47-2-3,.88-4.64,4.4-7.32,7.85-9.76,3.84-2.7,7.55-1.42,10.24,2.89.47,1.68,1,3.37-.32,4.93-1,1.06-1.89,2.75-3.56,1.69-1.37-.87.21-2,.42-3,.43-2.1,1.28-5.31-.76-5.77-2.9-.65-6,1.53-7.52,4.08-1.38,2.27-2.8,4.91-2.37,7.89l-1,.13C112.74,131.44,112.41,131.4,112.11,130.94Z"/><path class="cls-6" d="M127.85,126c.11-1.64.21-3.29.32-4.93C129.52,122.78,129.73,124.45,127.85,126Z"/><path class="cls-1" d="M178.07,139c1-3,1.72-6-1.89-8,11.45,0,22.9,0,34.34-.11,3.32,0,3.81.69,2.75,4-3.94,12.1-13.16,27.46-20.93,33.84-5.88-7.07-12.27-13.75-15.31-22.74.95-.34,1.06-1.11,1-2A6.26,6.26,0,0,1,178.07,139Z"/><path class="cls-1" d="M158.08,131.71c-3,1.13-2.18,4.1-2.79,6.27s-1.91,3.62-3.61,3.23c-2.49-.57-.56-2.82-.35-4.06.35-2.1,1.23-4.05-.09-6.09l6.85.12C158.08,131.35,158.08,131.53,158.08,131.71Z"/><path class="cls-1" d="M158.08,131.71c0-.18,0-.36,0-.53L161,131c.4,1.87-.61,4,.89,5.65,1.27,1.41-.17,2-.84,2.74-.39.42-1.41,1-1.56.81a2.91,2.91,0,0,1-1-3.06C159.07,135.29,159.77,133.42,158.08,131.71Z"/><path class="cls-1" d="M174,131c-2.82.78-4.39,3.61-7.47,4.86.12-2,1.22-3.34.66-4.88Z"/><path class="cls-10" d="M172.08,134.73c2.12-2.8,3.8-2,3.53,1-.2,2.24-.31,5.93-4.56,5.3C169.93,138.71,170.9,136.7,172.08,134.73Z"/><path class="cls-1" d="M172.08,134.73l-1,6.32Q168.42,137.38,172.08,134.73Z"/><path class="cls-1" d="M178.07,139c0,1.68,0,3.35,0,5A3.43,3.43,0,0,1,178.07,139Z"/><path class="cls-5" d="M110.61,132.44a3,3,0,0,1,1,.07l0,9.05C108.75,138.79,110.73,135.5,110.61,132.44Z"/></g></g></svg>