<svg xmlns="http://www.w3.org/2000/svg" viewBox="0 0 189.78 210.84"><defs><style>.cls-1{fill:#48abfe;}.cls-2{fill:#229afe;}.cls-3{fill:#7cb9f6;}.cls-4{fill:#a8cefb;}.cls-5{fill:#7bb9f6;}.cls-6{fill:#65b7fb;}.cls-7{fill:#4aaafa;}</style></defs><g id="Layer_2" data-name="Layer 2"><g id="Layer_2-2" data-name="Layer 2"><path class="cls-1" d="M1.13,105.15C-.48,97.9.36,90.66,1.18,83.42c.13-1.15-.12-2.37,1-3.19,1.46,1,1.76,2.76,2.25,4.29C6.57,91.27,17,96.25,23.85,89.75a11.82,11.82,0,0,1,.87-1.11,9.7,9.7,0,0,1,5.39-3.25c4.61,1.41,9.34.45,14,.66,3.05,0,2.48-2.5,3-4.24A3.73,3.73,0,0,1,47.85,80c.84-1,1.71-2.3,3.18-1.68,1.21.5,1.18,1.93,1,3-.8,4.24.47,5.25,4.76,4.07,2.92-.8,6.48.88,8.85-2.29,1.5-.86,2.9-2.16,4.84-1.14a4.09,4.09,0,0,1,1.2,4.24c-4.86,5.72-5.22,7.23-1.24,14.13,3.32,5.75,6.81,11.44,11.48,16.28,4,4.16,3.77,5.73-1.34,8.65a110.12,110.12,0,0,1-15.42,7.07c-4.88,1.88-6.61,4.8-5.2,8.56,1.23,3.31,4.49,4.33,9.37,2.69a93.14,93.14,0,0,0,21.48-10.48c3.5-2.3,6.4-2.83,9.9,0,3,2.34,6.25,5.13,9.32,6.3,5.26,2,10.6,4.78,16.49,4.94a4.68,4.68,0,0,0,5.18-4.36c.45-3.1-.35-5.62-3.54-6.89a139.52,139.52,0,0,1-16.81-7.61c-5.34-3-5.68-4.54-1.6-9.06,9.68-10.72,15.91-23.29,20.06-37,1.87-6.2,2.05-6.39,8.64-6.51,4.26-.08,8.86.69,11.54-4,.72-6.14-1.59-8.29-9-8.32q-16,.15-31.94,0c-6.17,0-7.12-1.12-7.3-7.37-.08-3,.16-6-.21-9-.41-3.36-2.13-5.7-5.69-5.85S91,40.76,90.2,43.72s-.51,6-.56,8.94c-.12,7.08-.93,7.92-8.17,8-7.82.07-15.64,0-23.46,0a39.55,39.55,0,0,0-4.49.14c-3,.37-5.56,1.49-6.34,4.71-.74,3,.93,5,3.42,6.54.57.34,1.15.67,1.69,1C54.73,77,50.75,78,49,78c-2.45.09-2.87,1.06-3.57,2.85-1.12,2.88-2.23,6.28-6.4,2.9-1.34-1.09-1.9.7-2.78,1.19-2,1.14-3.45,1-3.86-1.61a20.33,20.33,0,0,1,.84-4.16c2.91-4.24,3.76-4.46,6.52-1.84-.81-1.55-1.93-2.42-3.83-1.47-1.33.66-2.64,1.56-4.11.27-1-1.74-.22-3.38.25-5A97.89,97.89,0,0,1,40.5,55.62c10.28-14,24.23-22.36,40.83-26.8,8.57-2.3,12.27-10,8.92-17.8a12.46,12.46,0,0,0-6.18-6.21c-1.15-.59-2.62-.7-3.17-2.18.84-2.27,1.92-3.79,4.32-1.48,15.17-1.87,29.67.75,44,5.91,14.09,5.08,25.77,13.49,36.1,24.07,7.6,17.57,8.93,35.73,5.16,54.37-6,30-22.72,52.34-48.34,68.46a128.24,128.24,0,0,1-33.64,11.95c-15.8,3.28-31,1.2-46.22-3-5.61-1.53-10.81-4.19-16.46-5.67-2.67-.7-3.86-4.06-6.66-5-2.16-3.24-5-6.07-6-10-5.83-4-7-10.82-8.88-16.79A135.93,135.93,0,0,1,.48,111.82C0,109.53-.55,107.23,1.13,105.15Z"/><path class="cls-2" d="M19.62,152.8c5.31,2.28,10.52,4.88,16,6.76,12.76,4.4,25.6,7.7,39.47,6.88,15.21-.9,29.52-4.13,42.9-11.39a8.2,8.2,0,0,1,4.71-1.39c4.8,2.28,7.85,6.64,11.45,10.22,4.08,4.06,8.83,7.62,11.66,12.85-4.91,3.56-10.17,6.9-16,8.11-9.56,2-14.73,8.82-20.2,15.72-2.51,3.16-4.18,7.06-8.26,8.91-5.1,2.3-9.61,1.83-13.56-2.27-3.14-3.26-6.43-6.53-8.88-10.3a25.81,25.81,0,0,0-14.73-11.36C45.8,179.69,31.32,168,19.62,152.8Z"/><path class="cls-2" d="M141.75,179.23a341.55,341.55,0,0,1-24.58-24.3c4-5.29,10.23-7.73,15.14-11.91a105.37,105.37,0,0,0,23.19-28.1A108.28,108.28,0,0,0,167.18,84.4c.17-.06.41-.22.49-.16,8.43,6.18,16.5,12.72,21.5,22.17A98.26,98.26,0,0,1,170,154.1C162.36,164.29,153.3,173.21,141.75,179.23Z"/><path class="cls-2" d="M189.37,106.59A210.21,210.21,0,0,0,168.69,85.7c0-5.57,1.46-11,1.75-16.56.68-13-2.26-25.12-6.06-37.24-.11-.34.25-.84.4-1.27,6.91,8.24,13,16.91,17.42,26.87C189.24,73.3,190.61,89.7,189.37,106.59Z"/><path class="cls-3" d="M73,4.31c2.79,0,5.38-1.51,8.23-1,5,1.82,9.11,4.26,11.18,9.74,2.9,7.7-2.9,16.76-10.15,18.34a70.73,70.73,0,0,0-29.2,13.5c-4.77,3.76-8.76,8.32-12.76,12.84-1.5-1.22-1.3-2.95-1.42-4.58-.64-8.5-5.59-12.67-14.3-12.25-2.33.11-4.51,1.54-6.92.67,4.7-8.27,11.89-14.21,19.24-20C47.59,13,60.05,8.2,73,4.31Z"/><path class="cls-4" d="M19.16,40.21c8-3.87,15.21-2.52,20.09,3.56,3.07,3.84,1.52,8.3,2,12.49l-8.11,14.9c-4.35,5.66-9.78,6.92-16,3.72-1.8-6,2.14-13.27,8.2-13.76,5.28-.43,3.81,4,3.69,7.06,0,.67,0-.18.16.45.05.17.61,0,.87-.25,1.21-1.29.86-2.6.12-3.92-2.87-4.38-3.88-4.62-8.29-2.16C18,64.46,16,68.43,13.12,71.51a2.25,2.25,0,0,1-1.49-.15c-3.51-3-5.47-6.48-3.47-11.19C10.39,52.73,13.66,45.86,19.16,40.21Z"/><path class="cls-3" d="M8.16,60.17c-.5,4.37,1.68,7.75,4.08,11,1.51,1.84.51,3.86.3,5.76-.57,5.32.92,9.54,5.95,12,2,1.76,4.68-.38,6.73,1.12-3.6,3.91-7.9,4.77-12.93,3.23-6.56-2-9.38-6.73-10.12-13.14C3.27,73.28,3.78,66.14,8.16,60.17Z"/><path class="cls-1" d="M64.1,74.3l6.16,0c.93.77,1.14,3.55,3.24,1,.84-1,2.48-.27,3.57-1l2.19,0c4.56,1.22,4.46,4.23,3,7.76-1,1.78-.68,3.65-.41,5.53-.18,1-.26,2-1.72,1.65a11.7,11.7,0,0,0-9-3.13c-.33-1.3-.67-2.6-1-3.9-2.38-1.4-2.83,1.1-4.08,2-2.38,1-3.84,6-7.52,1.71-.21-.24-1.71.68-2.63,1-1.3.44-2.45,1.85-4,.43a4.07,4.07,0,0,1-1.26-4.9,4.78,4.78,0,0,0,.35-3.61c-1.85.37-2.59,1.59-2.75,3.33-1.25,1.77-.65,4.93-3.92,5.17-2.61-1.35-5.52,1.85-8.07-.53-2.41,2.92-4-.82-6.06-.76a2.16,2.16,0,0,1-1.55-2.2c.63-2.73.28-5.94,3.6-7.35,2.44-.69,4.59-2.75,7.47-1.29a2.2,2.2,0,0,1,1.49,2.24,1.62,1.62,0,0,1-1.38,1.74c-2.11.48-.87-1.3-1.26-1.72-2.51-2.68-3,.64-4.33,1.64-.34,1.45-1.54,2.69-1,4.34,1.25,3.22,2.33.83,3.38-.14s.94-2.92,2.54-2.68c2.08.32.42,2.68,1.56,3.74,3.75-.3,3.58-3.6,4.41-6,.91-2.66.8-2.7,3.25-1.23.72.43.72.43,4.86-2.81l1.2.07c3.44,2.08.93,5.08,1.24,8.21,1.66-1.5,1.77-3.3,2.27-4.86s1.06-3.22,3.29-2.94c3.53,1.11,1.31,4.14,2.19,6.49C63.83,78.76,62.28,76.3,64.1,74.3Z"/><path class="cls-5" d="M32.15,76.45c-1.82,2.23-1.7,5.22-3,7.66-1.84,3.43-4.81,4.65-8.54,4.27A5.9,5.9,0,0,1,15,83.22c-.05-2.9-.64-5.84.66-8.64a1.13,1.13,0,0,1,1.5-.44c6,2.56,11.19.82,16-3Z"/><path class="cls-5" d="M16.16,83.31c2.65,5.3,6.38,5.53,13,.8L30.1,86l-4.83,3.45c-2.35.25-4.53,2.17-7.06.77C11.52,86.54,9.8,82.7,11.4,75.06c.27-1.28.56-2.56.84-3.84l.92,0c1.37.63,2.46,1.48,2.52,3.15C15.83,77.32,14.78,80.38,16.16,83.31Z"/><path class="cls-1" d="M44.23,87.29c2.42-.88,2-3.92,3.92-5.17C47.61,84.43,48.7,88,44.23,87.29Z"/><path class="cls-3" d="M18.21,90.22c2.44.53,4.6-1.5,7.06-.77,0,.23,0,.46-.05.69C22.88,90.34,20.57,92.54,18.21,90.22Z"/><path class="cls-6" d="M48.11,134.33c0,1.25-.56,1.3-1.29,1.29s-1.69,0-1.52-1.16c.13-.92.88-.66,1.49-.69S48.15,133.68,48.11,134.33Z"/><path class="cls-1" d="M66,84.17c.79-1.83,1.21-4.42,4.08-2C68.34,82.06,67.52,83.82,66,84.17Z"/><path class="cls-1" d="M33.12,83.4c-1.59-1.9-.15-3.09,1-4.34A7,7,0,0,1,33.12,83.4Z"/><path class="cls-4" d="M15.19,74.2c-.62-1-2.16-1.48-2-3,.89-4.64,4.4-7.32,7.86-9.76C24.85,58.7,28.56,60,31.26,64.3c.46,1.68,1,3.37-.32,4.93-1,1.06-1.89,2.75-3.57,1.68-1.36-.87.21-2,.42-3,.44-2.09,1.29-5.3-.75-5.76-2.91-.65-6,1.53-7.53,4.08-1.38,2.26-2.79,4.91-2.37,7.89l-1,.13C15.82,74.7,15.49,74.66,15.19,74.2Z"/><path class="cls-4" d="M30.94,69.23c.1-1.64.21-3.29.32-4.93C32.61,66,32.82,67.7,30.94,69.23Z"/><path class="cls-1" d="M81.16,82.22c1-3,1.72-6-1.9-8,11.45,0,22.9,0,34.35-.11,3.31-.05,3.81.69,2.75,4-3.94,12.1-13.16,27.45-20.94,33.84-5.87-7.07-12.27-13.76-15.31-22.75,1-.33,1.07-1.11,1-2A6.22,6.22,0,0,1,81.16,82.22Z"/><path class="cls-1" d="M61.17,75c-3,1.13-2.18,4.09-2.79,6.26s-1.92,3.63-3.61,3.24c-2.5-.58-.56-2.83-.36-4.06.36-2.1,1.24-4.06-.09-6.09l6.85.11Z"/><path class="cls-1" d="M61.17,75v-.54l2.93-.13c.4,1.87-.6,4,.9,5.65,1.26,1.41-.18,2-.85,2.73-.39.43-1.4,1-1.55.82a2.9,2.9,0,0,1-1-3.06C62.15,78.55,62.86,76.67,61.17,75Z"/><path class="cls-1" d="M77.07,74.29c-2.82.79-4.39,3.61-7.47,4.87.12-2,1.21-3.34.66-4.88Z"/><path class="cls-7" d="M75.17,78c2.11-2.8,3.8-2,3.53,1-.2,2.24-.31,5.93-4.56,5.3C73,82,74,80,75.17,78Z"/><path class="cls-1" d="M75.17,78c-.34,2.11-.69,4.21-1,6.32Q71.5,80.63,75.17,78Z"/><path class="cls-1" d="M81.16,82.22c0,1.67,0,3.35,0,5A3.42,3.42,0,0,1,81.16,82.22Z"/><path class="cls-3" d="M13.69,75.7a2.73,2.73,0,0,1,1,.07c0,3,0,6,0,9C11.84,82,13.82,78.76,13.69,75.7Z"/></g></g></svg>